<?xml version="1.0" encoding="utf-8"?>
<!-- Generator: Adobe Illustrator 16.0.5, SVG Export Plug-In . SVG Version: 6.00 Build 0)  -->
<!DOCTYPE svg PUBLIC "-//W3C//DTD SVG 1.1//EN" "http://www.w3.org/Graphics/SVG/1.1/DTD/svg11.dtd">
<svg version="1.1" id="Layer_1" xmlns="http://www.w3.org/2000/svg" xmlns:xlink="http://www.w3.org/1999/xlink" x="0px" y="0px"
	 width="1000px" height="1000px" viewBox="0 0 1000 1000" enable-background="new 0 0 1000 1000" xml:space="preserve">
<rect x="-12" y="-12" fill="#DFE9ED" width="1024" height="1024"/>
<g>
	<g>
		<circle fill="#E1E7EA" cx="499.341" cy="500" r="280.647"/>
	</g>
	<g>
		<path fill="#253945" d="M392.649,820.05c-3.725,0-6.741-3.019-6.741-6.741V668.819c0-3.725,3.019-6.741,6.741-6.741h26.76
			c12.437,0,22.177-12.396,22.177-28.218v-95.82c0-19.739,6.335-31.26,13.822-37.983c-7.487-6.722-13.822-18.243-13.822-37.98
			v-95.821c0-16.088-9.534-28.221-22.177-28.221H193.728c-3.723,0-6.741-3.02-6.741-6.741c0-3.723,3.019-6.742,6.741-6.742h225.681
			c19.997,0,35.66,18.318,35.66,41.704v95.821c0,16.873,5.03,27.275,15.384,31.806c2.454,1.074,4.039,3.498,4.039,6.176
			c0,2.68-1.585,5.104-4.039,6.175c-10.354,4.531-15.384,14.938-15.384,31.811v95.82c0,23.384-15.664,41.699-35.66,41.699h-20.021
			V813.31C399.39,817.031,396.372,820.05,392.649,820.05z"/>
	</g>
	<g>
		<path fill="#253945" d="M484.172,820.05c-3.723,0-6.741-3.019-6.741-6.741V668.819c0-3.725,3.021-6.741,6.741-6.741h26.761
			c12.438,0,22.18-12.396,22.18-28.218v-95.82c0-19.739,6.334-31.26,13.818-37.983c-7.484-6.722-13.818-18.244-13.818-37.98v-95.821
			c0-16.088-9.535-28.221-22.18-28.221h-26.761c-3.723,0-6.741-3.02-6.741-6.741c0-3.723,3.021-6.742,6.741-6.742h26.761
			c19.996,0,35.66,18.318,35.66,41.704v95.821c0,16.873,5.031,27.274,15.383,31.806c2.455,1.074,4.039,3.498,4.039,6.176
			c0,2.68-1.584,5.104-4.039,6.175c-10.352,4.531-15.383,14.938-15.383,31.811v95.82c0,23.384-15.664,41.699-35.66,41.699h-20.02
			V813.31C490.914,817.031,487.896,820.05,484.172,820.05z"/>
	</g>
	<g>
		<path fill="#253945" d="M575.699,826.742c-3.725,0-6.742-3.021-6.742-6.741V668.818c0-3.725,3.02-6.741,6.742-6.741h26.76
			c12.436,0,22.178-12.396,22.178-28.218v-95.82c0-12.448,2.641-27.979,13.785-37.983c-11.146-10.007-13.785-25.535-13.785-37.98
			v-95.821c0-16.088-9.535-28.221-22.178-28.221h-26.76c-3.725,0-6.742-3.02-6.742-6.741c0-3.723,3.02-6.742,6.742-6.742h26.76
			c19.996,0,35.66,18.318,35.66,41.704v95.821c0,16.873,5.031,27.275,15.385,31.806c2.453,1.073,4.039,3.497,4.039,6.176
			c0,2.68-1.586,5.104-4.039,6.178c-10.354,4.526-15.385,14.935-15.385,31.808v95.82c0,23.384-15.664,41.699-35.66,41.699h-20.02
			v144.44C582.439,823.724,579.422,826.742,575.699,826.742z"/>
	</g>
	<g>
		<path fill="#E1E7EA" d="M499.341,78.66c-232.7,0-421.34,188.64-421.34,421.34c0,232.699,188.64,421.339,421.339,421.339
			c232.7,0,421.339-188.64,421.339-421.339C920.68,267.3,732.041,78.66,499.341,78.66z M499.341,780.646
			c-154.997,0-280.646-125.649-280.646-280.646s125.649-280.647,280.646-280.647S779.988,345.003,779.988,500
			S654.338,780.646,499.341,780.646z"/>
	</g>
	<g>
		<g>
			<path fill="#253945" d="M159.141,596.885c-2.987,0-5.717-2-6.514-5.022l-0.219-0.833c-0.939-3.604,1.22-7.285,4.823-8.227
				c3.598-0.938,7.285,1.224,8.223,4.824l0.209,0.797c0.95,3.602-1.2,7.287-4.8,8.237
				C160.288,596.812,159.71,596.885,159.141,596.885z"/>
		</g>
		<g>
			<path fill="#253945" d="M201.22,693.691c-2.243,0-4.438-1.12-5.717-3.16l-0.838-1.34c-1.968-3.16-1.003-7.317,2.157-9.286
				c3.158-1.971,7.318-1.004,9.287,2.154l0.815,1.306c1.979,3.152,1.026,7.313-2.128,9.294
				C203.683,693.356,202.444,693.691,201.22,693.691z M187.984,670.754c-2.418,0-4.756-1.305-5.965-3.593l-0.743-1.413
				c-1.722-3.302-0.44-7.374,2.86-9.096c3.303-1.722,7.374-0.441,9.095,2.858l0.708,1.351c1.74,3.291,0.481,7.369-2.811,9.107
				C190.125,670.502,189.046,670.754,187.984,670.754z M176.513,646.885c-2.596,0-5.071-1.51-6.179-4.041l-0.638-1.473
				c-1.468-3.422,0.114-7.386,3.535-8.855c3.422-1.468,7.386,0.114,8.855,3.536l0.6,1.389c1.493,3.408-0.062,7.386-3.473,8.878
				C178.333,646.701,177.416,646.885,176.513,646.885z M166.879,622.215c-2.789,0-5.397-1.743-6.366-4.522l-0.52-1.507
				c-1.207-3.521,0.669-7.354,4.19-8.562c3.521-1.202,7.356,0.67,8.563,4.191l0.498,1.438c1.225,3.518-0.632,7.358-4.147,8.585
				C168.364,622.093,167.615,622.215,166.879,622.215z"/>
		</g>
		<g>
			<path fill="#253945" d="M215.721,714.995c-2.069,0-4.111-0.948-5.433-2.74l-0.513-0.7c-2.199-3.003-1.545-7.222,1.459-9.421
				c3.003-2.2,7.223-1.544,9.421,1.459l0.485,0.659c2.209,2.998,1.571,7.219-1.426,9.428
				C218.512,714.566,217.11,714.995,215.721,714.995z"/>
		</g>
	</g>
	<g>
		<g>
			<path fill="#253945" d="M227.906,282.845c-1.51,0-3.03-0.505-4.287-1.541c-2.872-2.37-3.279-6.619-0.91-9.491l0.547-0.661
				c2.376-2.865,6.626-3.263,9.493-0.888c2.866,2.375,3.264,6.626,0.888,9.492l-0.527,0.638
				C231.777,282.01,229.849,282.845,227.906,282.845z"/>
		</g>
		<g>
			<path fill="#253945" d="M168.149,387.676c-0.757,0-1.526-0.128-2.279-0.399c-3.504-1.259-5.324-5.121-4.064-8.624l0.621-1.712
				c1.278-3.496,5.146-5.296,8.646-4.015c3.497,1.278,5.294,5.149,4.015,8.646l-0.594,1.639
				C173.505,385.963,170.913,387.676,168.149,387.676z M179.626,359.629c-0.944,0-1.902-0.199-2.815-0.62
				c-3.381-1.557-4.861-5.561-3.304-8.943l0.768-1.655c1.579-3.373,5.592-4.825,8.963-3.249c3.373,1.578,4.827,5.591,3.249,8.963
				l-0.733,1.579C184.618,358.174,182.177,359.629,179.626,359.629z M193.49,332.677c-1.132,0-2.279-0.285-3.332-0.886
				c-3.235-1.844-4.362-5.961-2.519-9.195l0.906-1.579c1.862-3.226,5.984-4.331,9.209-2.466c3.224,1.862,4.329,5.986,2.466,9.209
				l-0.868,1.513C198.109,331.454,195.833,332.677,193.49,332.677z M209.625,307.021c-1.323,0-2.66-0.389-3.83-1.198
				c-3.062-2.119-3.826-6.318-1.708-9.38l1.032-1.485c2.13-3.056,6.331-3.804,9.386-1.672c3.054,2.13,3.802,6.333,1.672,9.386
				l-1.002,1.442C213.866,306.007,211.764,307.021,209.625,307.021z"/>
		</g>
		<g>
			<path fill="#253945" d="M159.381,415.732c-0.575,0-1.159-0.074-1.741-0.229c-3.597-0.959-5.736-4.653-4.776-8.251l0.219-0.819
				c0.963-3.596,4.661-5.729,8.255-4.771c3.596,0.962,5.732,4.658,4.771,8.255l-0.217,0.809
				C165.086,413.741,162.361,415.732,159.381,415.732z"/>
		</g>
	</g>
	<g>
		<g>
			<path fill="#253945" d="M839.301,415.734c-2.979,0-5.705-1.991-6.51-5.008l-0.209-0.776c-0.979-3.591,1.139-7.297,4.73-8.277
				c3.598-0.987,7.299,1.14,8.277,4.73l0.229,0.85c0.959,3.598-1.182,7.292-4.777,8.251
				C840.461,415.66,839.877,415.734,839.301,415.734z"/>
		</g>
		<g>
			<path fill="#253945" d="M830.58,387.806c-2.762,0-5.355-1.711-6.344-4.46l-0.604-1.669c-1.264-3.503,0.555-7.366,4.057-8.628
				c3.508-1.258,7.365,0.554,8.627,4.056l0.604,1.675c1.264,3.503-0.555,7.365-4.061,8.626
				C832.109,387.678,831.338,387.806,830.58,387.806z M819.162,359.858c-2.555,0-4.998-1.459-6.133-3.932l-0.729-1.574
				c-1.573-3.375-0.111-7.386,3.261-8.959c3.382-1.572,7.388-0.111,8.96,3.261l0.764,1.65c1.551,3.385,0.064,7.387-3.316,8.938
				C821.057,359.661,820.102,359.858,819.162,359.858z M805.375,332.999c-2.346,0-4.625-1.226-5.867-3.41l-0.865-1.516
				c-1.854-3.229-0.742-7.35,2.484-9.205s7.35-0.742,9.203,2.486l0.898,1.568c1.84,3.236,0.709,7.352-2.527,9.193
				C807.648,332.715,806.504,332.999,805.375,332.999z M789.334,307.422c-2.145,0-4.252-1.021-5.559-2.921l-0.994-1.435
				c-2.125-3.058-1.369-7.258,1.688-9.383c3.057-2.128,7.258-1.369,9.383,1.688l1.027,1.487c2.111,3.067,1.334,7.264-1.731,9.375
				C791.982,307.037,790.65,307.422,789.334,307.422z"/>
		</g>
		<g>
			<path fill="#253945" d="M771.152,283.304c-1.941,0-3.867-0.834-5.201-2.449l-0.529-0.64c-2.375-2.866-1.979-7.117,0.889-9.492
				c2.863-2.376,7.117-1.979,9.492,0.888l0.545,0.66c2.371,2.871,1.965,7.12-0.904,9.491
				C774.186,282.798,772.666,283.304,771.152,283.304z"/>
		</g>
	</g>
	<g>
		<g>
			<path fill="#253945" d="M783.117,714.781c-1.381,0-2.775-0.424-3.979-1.303c-3.004-2.198-3.654-6.419-1.457-9.422l0.498-0.68
				c2.201-3.006,6.42-3.656,9.423-1.459c3.005,2.199,3.655,6.418,1.456,9.421l-0.497,0.682
				C787.242,713.824,785.193,714.781,783.117,714.781z"/>
		</g>
		<g>
			<path fill="#253945" d="M797.572,693.515c-1.223,0-2.457-0.332-3.568-1.024c-3.156-1.978-4.115-6.137-2.141-9.291l0.812-1.306
				c1.965-3.158,6.123-4.13,9.285-2.166c3.162,1.969,4.131,6.124,2.166,9.286l-0.832,1.333
				C802.016,692.393,799.818,693.515,797.572,693.515z M810.768,670.619c-1.061,0-2.139-0.252-3.145-0.783
				c-3.291-1.74-4.547-5.82-2.809-9.111l0.699-1.333c1.717-3.307,5.787-4.587,9.092-2.872c3.303,1.719,4.59,5.786,2.869,9.092
				l-0.74,1.419C815.525,669.314,813.188,670.619,810.768,670.619z M822.207,646.794c-0.895,0-1.801-0.178-2.674-0.557
				c-3.416-1.479-4.988-5.446-3.51-8.862l0.605-1.409c1.469-3.422,5.426-5.005,8.854-3.537c3.423,1.47,5.005,5.434,3.537,8.854
				l-0.625,1.442C827.297,645.271,824.814,646.794,822.207,646.794z M831.816,622.177c-0.732,0-1.479-0.12-2.207-0.374
				c-3.52-1.219-5.381-5.061-4.162-8.578l0.5-1.441c1.203-3.523,5.041-5.406,8.559-4.195c3.525,1.205,5.402,5.038,4.195,8.562
				l-0.514,1.494C837.221,620.429,834.609,622.177,831.816,622.177z"/>
		</g>
		<g>
			<path fill="#253945" d="M839.541,596.883c-0.562,0-1.135-0.07-1.705-0.219c-3.604-0.939-5.762-4.621-4.824-8.225l0.215-0.814
				c0.939-3.604,4.625-5.76,8.227-4.824c3.602,0.94,5.762,4.622,4.822,8.227l-0.215,0.812
				C845.27,594.874,842.535,596.883,839.541,596.883z"/>
		</g>
	</g>
	<g>
		<path fill="#253945" d="M499.341,787.354c-158.447,0-287.354-128.905-287.354-287.354s128.906-287.354,287.354-287.354
			c158.446,0,287.354,128.906,287.354,287.354C786.695,658.446,657.787,787.354,499.341,787.354z M499.341,226.129
			C348.328,226.129,225.47,348.987,225.47,500c0,151.012,122.857,273.87,273.871,273.87c151.013,0,273.87-122.858,273.87-273.87
			C773.211,348.987,650.354,226.129,499.341,226.129z"/>
	</g>
	<g>
		<path fill="#253945" d="M499.341,928.081c-114.344,0-221.844-44.529-302.699-125.384C115.788,721.844,71.26,614.344,71.26,500
			c0-114.345,44.528-221.845,125.382-302.699c80.854-80.854,188.354-125.382,302.699-125.382s221.843,44.528,302.698,125.382
			C882.893,278.156,927.422,385.655,927.422,500c0,114.344-44.529,221.844-125.383,302.697
			C721.184,883.552,613.686,928.081,499.341,928.081z M499.341,85.402c-110.743,0-214.857,43.125-293.165,121.433
			C127.869,285.142,84.743,389.257,84.743,500s43.126,214.856,121.433,293.165c78.308,78.307,182.423,121.433,293.165,121.433
			c110.743,0,214.856-43.126,293.165-121.433C870.812,714.856,913.939,610.743,913.939,500s-43.127-214.858-121.436-293.165
			C714.197,128.527,610.084,85.402,499.341,85.402z"/>
	</g>
	<g>
		<g>
			<g>
				<path fill="#253945" d="M926.578,500c0,0-0.1,3.902-0.25,9.756c-0.074,2.927-0.158,6.341-0.252,9.999
					c-0.006,1.832-0.158,3.717-0.312,5.631c-0.146,1.916-0.295,3.861-0.441,5.809c-0.299,3.893-0.594,7.781-0.867,11.432
					c-0.354,3.641-0.865,7.019-1.211,9.925c-0.734,5.809-1.229,9.678-1.229,9.678l22.936,3.348c0,0-0.92-4.258-2.297-10.644
					c-0.719-3.172-1.449-6.837-2.436-10.744c-1.064-3.881-2.205-8.021-3.342-12.158c-0.57-2.039-1.143-4.08-1.705-6.089
					c-0.555-2-1.1-3.956-1.77-5.851c-1.266-3.751-2.443-7.251-3.455-10.252C927.928,503.936,926.578,500,926.578,500z"/>
			</g>
		</g>
		<g>
			<g>
				<path fill="#253945" d="M922.016,562.227c0,0-0.123,0.97-0.336,2.661c-0.299,1.683-0.727,4.082-1.234,6.962
					c-0.518,2.881-1.115,6.241-1.76,9.845c-0.346,1.795-0.594,3.672-1.045,5.54c-0.434,1.867-0.873,3.771-1.312,5.671
					c-0.877,3.801-1.754,7.603-2.576,11.166c-0.205,0.892-0.406,1.768-0.604,2.625c-0.239,0.848-0.474,1.675-0.702,2.479
					c-0.457,1.613-0.893,3.139-1.291,4.545c-1.6,5.629-2.664,9.381-2.664,9.381l22.195,6.67c0,0-0.271-4.344-0.682-10.854
					c-0.107-1.611-0.225-3.356-0.348-5.201c-0.064-0.919-0.129-1.861-0.197-2.826c-0.111-0.971-0.225-1.962-0.34-2.971
					c-0.473-3.991-0.979-8.247-1.48-12.505c-0.258-2.1-0.518-4.199-0.771-6.266c-0.238-2.057-0.67-4.105-0.984-6.062
					c-0.686-3.889-1.323-7.52-1.871-10.632c-0.559-3.068-1.021-5.626-1.35-7.417C922.252,563.248,922.016,562.227,922.016,562.227z"
					/>
			</g>
		</g>
		<g>
			<g>
				<path fill="#253945" d="M908.49,623.102c0,0-0.264,0.939-0.73,2.581c-0.41,1.659-1.291,3.938-2.199,6.72
					c-0.938,2.771-2.031,6.005-3.205,9.469c-0.59,1.729-1.197,3.52-1.818,5.336c-0.705,1.787-1.42,3.602-2.141,5.415
					c-2.877,7.252-5.615,14.562-8.174,19.833c-2.41,5.332-4.018,8.888-4.018,8.888l20.979,9.852c0,0,0.369-4.335,0.926-10.837
					c0.682-6.396,0.863-15.109,1.111-23.595c0.057-2.111,0.109-4.227,0.164-6.307c-0.037-2.095-0.076-4.155-0.111-6.148
					c-0.1-3.943-0.189-7.627-0.27-10.782c-0.117-3.143-0.098-5.698-0.293-7.548C908.572,624.146,908.49,623.102,908.49,623.102z"/>
			</g>
		</g>
		<g>
			<g>
				<path fill="#253945" d="M886.205,681.341c0,0-0.402,0.891-1.104,2.443c-0.652,1.58-1.846,3.712-3.156,6.327
					c-1.334,2.604-2.893,5.644-4.561,8.897c-0.84,1.622-1.674,3.319-2.586,5.011c-0.959,1.663-1.932,3.354-2.904,5.047
					c-1.943,3.383-3.891,6.765-5.713,9.937c-1.75,3.214-3.738,6-5.275,8.489c-3.158,4.928-5.264,8.213-5.264,8.213l19.314,12.805
					c0,0,0.996-4.233,2.488-10.588c0.688-3.184,1.678-6.757,2.332-10.785c0.705-3.955,1.461-8.174,2.217-12.391
					c0.359-2.083,0.727-4.167,1.082-6.218c0.307-2.067,0.539-4.13,0.795-6.1c0.479-3.916,0.93-7.571,1.312-10.705
					c0.352-3.12,0.729-5.654,0.812-7.512C886.131,682.386,886.205,681.341,886.205,681.341z"/>
			</g>
		</g>
		<g>
			<g>
				<path fill="#253945" d="M855.643,735.705c0,0-0.525,0.821-1.445,2.26c-0.902,1.448-2.383,3.396-4.061,5.791
					c-1.694,2.385-3.674,5.167-5.793,8.149c-1.08,1.476-2.111,3.062-3.311,4.563c-1.188,1.513-2.395,3.043-3.602,4.577
					c-2.408,3.069-4.818,6.14-7.08,9.017c-1.102,1.461-2.271,2.785-3.373,4.052c-1.1,1.267-2.139,2.466-3.096,3.571
					c-3.834,4.424-6.389,7.375-6.389,7.375l17.256,15.471c0,0,1.594-4.05,3.982-10.127c0.586-1.506,1.221-3.139,1.891-4.861
					c0.67-1.717,1.379-3.516,1.998-5.458c1.268-3.812,2.625-7.882,3.979-11.948c0.657-2.012,1.317-4.021,1.968-6.001
					c0.652-1.966,1.145-4,1.691-5.9c1.043-3.811,2.018-7.362,2.85-10.408c0.801-3.04,1.534-5.499,1.911-7.308
					C855.418,736.729,855.643,735.705,855.643,735.705z"/>
			</g>
		</g>
		<g>
			<g>
				<path fill="#253945" d="M817.496,785.061c0,0-0.639,0.737-1.754,2.029c-1.178,1.236-2.859,3.004-4.875,5.124
					c-4.07,4.208-9.309,10.005-15.074,15.271c-2.824,2.692-5.648,5.387-8.297,7.913c-2.688,2.48-5.326,4.651-7.521,6.589
					c-4.424,3.833-7.375,6.389-7.375,6.389l14.836,17.807c0,0,2.156-3.781,5.395-9.46c1.58-2.843,3.486-6.056,5.354-9.632
					c1.805-3.595,3.729-7.43,5.65-11.265c3.91-7.501,7.156-15.408,9.672-21.134c1.229-2.869,2.254-5.263,2.971-6.937
					C817.127,786.042,817.496,785.061,817.496,785.061z"/>
			</g>
		</g>
		<g>
			<g>
				<path fill="#253945" d="M772.602,828.376c0,0-0.184,0.16-0.527,0.46c-0.352,0.293-0.836,0.758-1.52,1.271
					c-1.342,1.056-3.262,2.562-5.562,4.366c-2.301,1.812-4.986,3.923-7.863,6.183c-0.719,0.564-1.449,1.141-2.188,1.722
					c-0.77,0.546-1.545,1.098-2.328,1.653c-1.564,1.111-3.154,2.242-4.744,3.373c-3.18,2.263-6.359,4.522-9.34,6.646
					c-3.076,1.979-5.949,3.827-8.41,5.41c-4.926,3.16-8.211,5.267-8.211,5.267L734,884.498c0,0,2.68-3.438,6.699-8.593
					c1.982-2.573,4.299-5.53,6.711-8.735c2.301-3.302,4.754-6.823,7.209-10.346c1.203-1.744,2.406-3.489,3.59-5.206
					c0.586-0.854,1.168-1.701,1.744-2.537c0.543-0.873,1.08-1.733,1.605-2.58c2.08-3.362,4.023-6.499,5.688-9.189
					c1.631-2.66,2.99-4.881,3.94-6.433c0.481-0.761,0.81-1.419,1.052-1.842C772.477,828.606,772.602,828.376,772.602,828.376z"/>
			</g>
		</g>
		<g>
			<g>
				<path fill="#253945" d="M721.906,864.727c0,0-0.801,0.561-2.293,1.39c-1.482,0.851-3.598,2.063-6.133,3.521
					c-2.537,1.458-5.496,3.162-8.67,4.985c-1.564,0.946-3.258,1.787-4.971,2.66c-1.707,0.875-3.441,1.764-5.18,2.651
					c-3.475,1.777-6.947,3.557-10.203,5.224c-3.334,1.506-6.443,2.91-9.109,4.114c-5.334,2.411-8.887,4.021-8.887,4.021
					l9.072,21.325c0,0,3.15-3.015,7.881-7.533c2.314-2.24,5.02-4.854,7.916-7.654c2.756-2.935,5.695-6.063,8.635-9.193
					c1.443-1.555,2.887-3.104,4.311-4.636c1.41-1.521,2.805-2.997,4.068-4.554c2.543-3.03,4.918-5.854,6.953-8.28
					c1.998-2.397,3.662-4.399,4.828-5.802C721.297,865.594,721.906,864.727,721.906,864.727z"/>
			</g>
		</g>
		<g>
			<g>
				<path fill="#253945" d="M666.463,893.294c-0.002,0-0.883,0.42-2.479,1.023c-1.588,0.626-3.855,1.52-6.578,2.593
					c-2.725,1.072-5.898,2.327-9.299,3.668c-3.396,1.361-7.146,2.471-10.822,3.765c-3.695,1.251-7.393,2.503-10.854,3.675
					c-3.52,1-6.803,1.933-9.616,2.73c-5.63,1.6-9.384,2.666-9.384,2.666l5.852,22.425c0,0,3.559-2.515,8.898-6.288
					c2.621-1.875,5.682-4.062,8.957-6.406c3.154-2.5,6.521-5.168,9.889-7.836c3.312-2.695,6.65-5.199,9.635-7.855
					c2.959-2.625,5.719-5.077,8.086-7.178c2.326-2.085,4.266-3.821,5.621-5.036C665.725,894.046,666.461,893.294,666.463,893.294z"
					/>
			</g>
		</g>
		<g>
			<g>
				<path fill="#253945" d="M607.432,913.414c0,0-0.23,0.068-0.672,0.193c-0.438,0.137-1.09,0.289-1.922,0.476
					c-1.664,0.383-4.039,0.932-6.893,1.588c-2.852,0.658-6.178,1.427-9.74,2.25c-0.891,0.206-1.795,0.416-2.711,0.629
					c-0.928,0.164-1.865,0.332-2.812,0.502c-1.891,0.336-3.812,0.68-5.73,1.021c-3.84,0.688-7.683,1.374-11.281,2.018
					c-3.609,0.588-7.01,0.923-9.908,1.321c-5.807,0.739-9.678,1.229-9.678,1.229l2.506,23.039c0,0,3.895-1.952,9.729-4.886
					c2.891-1.491,6.258-3.103,9.791-5.053c3.488-2.003,7.213-4.138,10.934-6.273c1.834-1.062,3.666-2.125,5.469-3.172
					c0.896-0.521,1.781-1.04,2.658-1.552c0.863-0.56,1.715-1.109,2.553-1.651c3.314-2.158,6.406-4.174,9.059-5.898
					c2.605-1.715,4.78-3.146,6.303-4.146c0.756-0.495,1.348-0.889,1.742-1.188C607.223,913.569,607.432,913.414,607.432,913.414z"/>
			</g>
		</g>
		<g>
			<g>
				<path fill="#253945" d="M546.084,924.643c0,0-0.969,0.123-2.662,0.341c-1.699,0.168-4.133,0.321-7.051,0.553
					c-2.918,0.223-6.324,0.48-9.973,0.759c-1.824,0.127-3.707,0.313-5.625,0.402c-1.924,0.047-3.871,0.095-5.824,0.145
					c-7.803,0.139-15.608,0.569-21.462,0.247c-5.854-0.147-9.757-0.247-9.757-0.247L482.899,950c0,0,4.13-1.345,10.323-3.36
					c6.15-1.847,14.239-5.18,22.145-8.22c1.967-0.771,3.936-1.549,5.871-2.311c1.924-0.804,3.805-1.692,5.617-2.497
					c3.596-1.636,6.947-3.161,9.822-4.47c2.852-1.315,5.207-2.37,6.846-3.172C545.152,925.126,546.084,924.643,546.084,924.643z"/>
			</g>
		</g>
		<g>
			<g>
				<path fill="#253945" d="M483.73,926.84c0,0-0.977-0.022-2.684-0.065c-1.708-0.031-4.146-0.074-7.062-0.351
					c-2.918-0.223-6.323-0.48-9.974-0.76c-1.823-0.138-3.709-0.281-5.625-0.426c-0.957-0.076-1.922-0.149-2.891-0.228l-2.899-0.37
					c-3.871-0.49-7.74-0.984-11.371-1.445c-3.626-0.48-7.026-0.814-9.896-1.406c-5.761-1.031-9.603-1.717-9.603-1.717l-4.185,22.795
					c0,0,4.278-0.708,10.697-1.771c3.173-0.461,6.905-1.355,10.85-2.203c3.91-0.872,8.081-1.803,12.251-2.73l3.088-0.701
					c1.026-0.281,2.049-0.562,3.064-0.84c2.015-0.562,3.999-1.114,5.918-1.648c3.79-1.071,7.327-2.075,10.357-2.934
					c3.004-0.809,5.494-1.67,7.232-2.271C482.741,927.177,483.73,926.84,483.73,926.84z"/>
			</g>
		</g>
		<g>
			<g>
				<path fill="#253945" d="M421.729,920.072c0,0-0.959-0.172-2.64-0.473c-1.676-0.322-4.093-0.672-6.951-1.296
					c-5.692-1.35-13.319-3.007-20.89-4.892c-7.493-2.174-15.037-4.18-20.614-5.942c-5.542-1.878-9.237-3.129-9.237-3.129
					l-7.479,21.937c0,0,4.333-0.064,10.834-0.16c6.493-0.226,15.151-0.913,23.575-1.489c8.512-0.866,16.897-2.008,23.078-2.776
					c3.104-0.435,5.701-0.975,7.5-1.271C420.702,920.256,421.729,920.072,421.729,920.072z"/>
			</g>
		</g>
		<g>
			<g>
				<path fill="#253945" d="M361.396,904.343c0,0-3.693-1.255-9.233-3.138c-5.435-2.169-12.719-4.97-19.944-7.911
					c-7.093-3.251-14.253-6.359-19.518-8.909c-5.208-2.67-8.681-4.447-8.681-4.447l-10.613,20.602c0,0,4.296,0.573,10.739,1.431
					c6.462,0.72,15.118,1.323,23.536,1.988c8.562,0.36,17.009,0.503,23.232,0.649C357.205,904.448,361.396,904.343,361.396,904.343z
					"/>
			</g>
		</g>
		<g>
			<g>
				<path fill="#253945" d="M304.021,879.938c0,0-3.469-1.783-8.673-4.463c-5.058-2.943-11.869-6.76-18.573-10.748
					c-3.284-2.104-6.569-4.213-9.648-6.188c-1.541-0.987-3.029-1.94-4.44-2.846c-1.423-0.891-2.746-1.763-3.922-2.634
					c-4.77-3.394-7.949-5.654-7.949-5.654l-13.5,18.837c0,0,4.169,1.187,10.423,2.967c1.538,0.461,3.248,0.886,5.073,1.296
					c1.809,0.42,3.716,0.864,5.689,1.323c3.902,0.889,8.065,1.837,12.228,2.784c8.402,1.632,16.75,2.984,22.887,4.044
					C299.859,879.423,304.021,879.938,304.021,879.938z"/>
			</g>
		</g>
		<g>
			<g>
				<path fill="#253945" d="M250.815,847.404c0,0-0.795-0.564-2.187-1.556c-1.378-1.008-3.411-2.358-5.735-4.138
					c-4.573-3.654-10.798-8.367-16.815-13.337c-2.949-2.556-5.899-5.11-8.664-7.507c-2.752-2.409-5.397-4.575-7.466-6.65
					c-4.235-4.039-7.06-6.731-7.06-6.731l-16.087,16.683c0,0,3.959,1.771,9.897,4.431c2.902,1.366,6.504,2.688,10.254,4.167
					c3.737,1.442,7.722,2.979,11.708,4.516c8.036,2.881,16.142,5.383,22.056,7.327c2.996,0.925,5.572,1.552,7.325,2.049
					C249.808,847.133,250.815,847.404,250.815,847.404z"/>
			</g>
		</g>
		<g>
			<g>
				<path fill="#253945" d="M202.89,807.485c0,0-0.706-0.673-1.942-1.852c-1.207-1.208-3.07-2.793-5.055-4.944
					c-2.019-2.119-4.375-4.594-6.899-7.24c-1.263-1.323-2.567-2.69-3.893-4.081c-0.663-0.694-1.332-1.396-2.003-2.097l-1.913-2.212
					c-2.555-2.948-5.109-5.899-7.505-8.665c-1.198-1.384-2.357-2.721-3.456-3.985c-1.1-1.266-2.032-2.552-2.95-3.69
					c-3.616-4.602-6.027-7.671-6.027-7.671l-18.333,14.177c0,0,3.667,2.321,9.167,5.808c1.382,0.848,2.813,1.813,4.438,2.735
					c1.617,0.916,3.323,1.886,5.087,2.887c3.495,1.96,7.223,4.052,10.951,6.144l2.768,1.539c0.952,0.478,1.901,0.95,2.843,1.421
					c1.872,0.934,3.714,1.848,5.498,2.733c3.532,1.735,6.829,3.357,9.654,4.748c2.774,1.405,5.279,2.353,6.931,3.108
					C201.93,807.072,202.89,807.485,202.89,807.485z"/>
			</g>
		</g>
		<g>
			<g>
				<path fill="#253945" d="M161.247,761.048c0,0-0.603-0.768-1.658-2.106c-1.045-1.352-2.61-3.227-4.262-5.645
					c-1.695-2.386-3.674-5.169-5.793-8.15c-2.098-2.994-4.462-6.105-6.495-9.439c-2.106-3.285-4.212-6.57-6.186-9.65
					c-0.987-1.539-1.943-3.024-2.848-4.438c-0.836-1.452-1.627-2.826-2.357-4.093c-2.917-5.074-4.862-8.457-4.862-8.457
					l-20.2,11.357c0,0,3.296,2.828,8.242,7.069c1.229,1.042,2.56,2.173,3.968,3.369c1.47,1.141,3.021,2.342,4.624,3.586
					c3.18,2.442,6.571,5.052,9.962,7.656c3.298,2.62,6.907,4.984,10.151,7.254c3.249,2.227,6.281,4.304,8.881,6.087
					c2.541,1.792,4.833,3.127,6.384,4.096C160.356,760.501,161.247,761.048,161.247,761.048z"/>
			</g>
		</g>
		<g>
			<g>
				<path fill="#253945" d="M126.786,709.066c0,0-0.486-0.848-1.337-2.325c-0.426-0.741-0.943-1.64-1.537-2.668
					c-0.585-1.035-1.164-2.247-1.84-3.544c-1.334-2.605-2.89-5.646-4.557-8.899c-1.663-3.257-3.507-6.698-5.038-10.289
					c-1.607-3.556-3.214-7.11-4.721-10.442c-0.75-1.668-1.476-3.279-2.164-4.809c-0.614-1.561-1.195-3.035-1.73-4.396
					c-2.146-5.444-3.578-9.073-3.578-9.073l-21.644,8.283c0,0,2.85,3.277,7.124,8.195c1.062,1.214,2.213,2.526,3.43,3.915
					c1.287,1.345,2.643,2.761,4.046,4.229c2.792,2.88,5.77,5.951,8.749,9.021c2.888,3.073,6.071,5.956,8.976,8.661
					c2.895,2.672,5.596,5.168,7.912,7.308c1.162,1.053,2.183,2.034,3.158,2.861c0.982,0.823,1.838,1.539,2.543,2.128
					C125.982,708.395,126.786,709.066,126.786,709.066z"/>
			</g>
		</g>
		<g>
			<g>
				<path fill="#253945" d="M100.284,652.62c0,0-0.358-0.907-0.984-2.495c-0.314-0.793-0.695-1.756-1.131-2.862
					c-0.418-1.11-0.82-2.393-1.296-3.773c-0.938-2.771-2.031-6.006-3.203-9.473c-1.161-3.468-2.498-7.136-3.48-10.915
					c-1.065-3.752-2.131-7.505-3.13-11.021c-0.5-1.759-0.984-3.459-1.442-5.072c-0.38-1.633-0.74-3.175-1.071-4.601
					c-1.316-5.702-2.193-9.503-2.193-9.503l-22.625,5.019c0,0,2.333,3.662,5.831,9.156c0.874,1.354,1.821,2.822,2.823,4.374
					c1.077,1.518,2.214,3.117,3.389,4.771c2.337,3.261,4.83,6.734,7.323,10.212c2.4,3.465,5.144,6.776,7.614,9.881
					c2.472,3.065,4.778,5.932,6.755,8.387c0.992,1.212,1.865,2.331,2.699,3.297c0.852,0.956,1.595,1.789,2.206,2.477
					C99.587,651.84,100.284,652.62,100.284,652.62z"/>
			</g>
		</g>
		<g>
			<g>
				<path fill="#253945" d="M82.353,592.903c0,0-0.219-0.951-0.604-2.613c-0.368-1.666-0.998-4.026-1.454-6.918
					c-0.514-2.88-1.113-6.241-1.755-9.842c-0.322-1.802-0.655-3.66-0.993-5.552c-0.169-0.944-0.34-1.897-0.511-2.854l-0.37-2.898
					c-0.491-3.869-0.982-7.74-1.443-11.369c-0.432-3.635-0.98-7.009-1.122-9.935c-0.442-5.838-0.737-9.729-0.737-9.729
					l-23.115,1.669c0,0,1.755,3.965,4.387,9.909c1.235,2.957,3.06,6.345,4.856,9.949c1.822,3.566,3.766,7.372,5.709,11.179
					l1.454,2.812c0.531,0.924,1.06,1.842,1.585,2.755c1.047,1.812,2.079,3.592,3.077,5.316c1.986,3.396,3.839,6.572,5.428,9.291
					c1.526,2.706,3.044,4.888,4.032,6.424C81.779,592.029,82.353,592.903,82.353,592.903z"/>
			</g>
		</g>
		<g>
			<g>
				<path fill="#253945" d="M73.363,531.192c0,0-0.287-3.893-0.716-9.729c-0.148-5.854-0.346-13.659-0.543-21.464
					c0.197-7.805,0.395-15.609,0.543-21.463c0.43-5.838,0.716-9.73,0.716-9.73l-23.115-1.669c0,0,1.105,4.221,2.869,10.435
					c2.013,6.229,4.706,14.421,7.399,22.429c3.1,8.019,6.198,15.852,8.514,21.642C71.595,527.422,73.362,531.192,73.363,531.192z"/>
			</g>
		</g>
		<g>
			<g>
				<path fill="#253945" d="M73.363,468.807c0,0,0.295-3.892,0.737-9.729c0.142-2.927,0.69-6.302,1.122-9.936
					c0.461-3.629,0.952-7.5,1.443-11.369l0.37-2.9c0.171-0.956,0.342-1.908,0.511-2.854c0.338-1.89,0.671-3.75,0.993-5.55
					c0.642-3.601,1.242-6.961,1.755-9.842c0.457-2.893,1.086-5.251,1.454-6.917c0.385-1.663,0.604-2.614,0.604-2.614l-22.625-5.018
					c0,0,0.123,1.079,0.338,2.966c0.233,1.887,0.463,4.554,1.047,7.789c0.532,3.198,1.152,6.931,1.817,10.928
					c0.337,1.977,0.686,4.017,1.04,6.089c0.178,1.029,0.357,2.067,0.539,3.109L65.2,436.1c0.934,4.147,1.867,8.293,2.741,12.182
					c0.909,3.854,1.617,7.399,2.555,10.456C72.215,464.778,73.363,468.807,73.363,468.807z"/>
			</g>
		</g>
		<g>
			<g>
				<path fill="#253945" d="M82.353,407.096c0,0,0.877-3.801,2.193-9.503c0.332-1.424,0.691-2.968,1.071-4.601
					c0.458-1.612,0.942-3.312,1.442-5.071c0.999-3.518,2.065-7.271,3.13-11.024c0.982-3.778,2.319-7.447,3.48-10.915
					c1.172-3.464,2.265-6.698,3.203-9.469c0.477-1.383,0.878-2.664,1.296-3.776c0.436-1.105,0.817-2.069,1.131-2.863
					c0.626-1.588,0.984-2.495,0.984-2.495l-21.644-8.284c0,0-0.038,1.085-0.104,2.982c-0.031,0.945-0.07,2.092-0.114,3.408
					c-0.024,1.32,0.02,2.831,0.032,4.46c0.051,3.24,0.109,7.02,0.172,11.069c0.085,4.024,0.092,8.25,0.467,12.548
					c0.303,4.234,0.606,8.469,0.89,12.438c0.149,1.958,0.293,3.852,0.43,5.648c0.219,1.802,0.426,3.505,0.617,5.078
					C81.824,402.949,82.353,407.096,82.353,407.096z"/>
			</g>
		</g>
		<g>
			<g>
				<path fill="#253945" d="M100.284,347.379c0,0,1.431-3.63,3.578-9.074c0.536-1.361,1.117-2.835,1.73-4.396
					c0.688-1.528,1.414-3.14,2.164-4.808c1.507-3.333,3.114-6.888,4.721-10.443c1.531-3.591,3.375-7.032,5.038-10.29
					c1.667-3.255,3.223-6.294,4.557-8.899c0.676-1.297,1.255-2.508,1.84-3.542c0.593-1.03,1.11-1.929,1.537-2.669
					c0.851-1.479,1.337-2.325,1.337-2.325l-20.2-11.361c0,0-0.195,1.067-0.538,2.936c-0.169,0.93-0.375,2.06-0.61,3.355
					c-0.225,1.297-0.396,2.802-0.625,4.414c-0.424,3.213-0.92,6.959-1.451,10.975c-0.511,3.989-1.109,8.179-1.374,12.482
					c-0.324,4.232-0.648,8.464-0.952,12.432c-0.137,1.96-0.271,3.855-0.396,5.653c-0.046,1.815-0.09,3.531-0.13,5.115
					C100.375,343.202,100.284,347.379,100.284,347.379z"/>
			</g>
		</g>
		<g>
			<g>
				<path fill="#253945" d="M126.786,290.934c0,0,1.945-3.382,4.862-8.457c0.73-1.268,1.521-2.642,2.357-4.095
					c0.905-1.411,1.861-2.899,2.848-4.438c1.974-3.081,4.08-6.365,6.186-9.65c2.033-3.334,4.397-6.445,6.495-9.442
					c2.12-2.981,4.098-5.765,5.793-8.149c1.651-2.418,3.217-4.292,4.262-5.643c1.055-1.342,1.658-2.108,1.658-2.108l-18.333-14.177
					c0,0-0.347,1.028-0.956,2.828c-0.594,1.805-1.512,4.323-2.368,7.494c-0.885,3.118-1.917,6.755-3.023,10.653
					c-1.064,3.888-2.303,7.92-3.186,12.143c-0.935,4.142-1.87,8.283-2.746,12.166c-0.424,1.919-0.834,3.774-1.223,5.532
					c-0.312,1.789-0.607,3.479-0.879,5.041C127.485,286.812,126.786,290.934,126.786,290.934z"/>
			</g>
		</g>
		<g>
			<g>
				<path fill="#253945" d="M161.247,238.952c0,0,2.411-3.069,6.027-7.672c0.918-1.139,1.85-2.424,2.95-3.69
					c1.099-1.267,2.257-2.603,3.456-3.985c2.396-2.765,4.95-5.715,7.505-8.666l1.913-2.209c0.671-0.704,1.34-1.404,2.003-2.099
					c1.326-1.39,2.63-2.757,3.893-4.081c2.524-2.649,4.88-5.121,6.899-7.239c1.985-2.153,3.849-3.737,5.055-4.945
					c1.236-1.179,1.942-1.851,1.942-1.851l-16.087-16.682c0,0-0.49,0.968-1.35,2.665c-0.826,1.722-2.142,4.038-3.448,7.05
					c-1.323,2.961-2.866,6.416-4.52,10.117c-0.809,1.833-1.646,3.727-2.495,5.652c-0.42,0.957-0.843,1.921-1.269,2.89l-1.163,2.998
					c-1.521,3.967-3.041,7.935-4.466,11.653c-0.695,1.839-1.368,3.618-2.005,5.304c-0.634,1.678-1.121,3.35-1.625,4.84
					C162.533,234.972,161.247,238.952,161.247,238.952z"/>
			</g>
		</g>
		<g>
			<g>
				<path fill="#253945" d="M202.89,192.514c0,0,2.825-2.693,7.06-6.734c2.069-2.075,4.714-4.24,7.466-6.65
					c2.765-2.396,5.714-4.951,8.664-7.506c6.017-4.969,12.242-9.683,16.815-13.336c2.324-1.778,4.356-3.13,5.735-4.138
					c1.391-0.989,2.187-1.554,2.187-1.554l-13.5-18.837c0,0-0.625,0.889-1.719,2.445c-1.077,1.572-2.673,3.727-4.452,6.454
					c-3.484,5.552-8.162,12.737-12.482,20.063c-2.073,3.712-4.146,7.423-6.089,10.903c-1.903,3.472-3.727,6.604-5.077,9.494
					C204.732,188.755,202.89,192.514,202.89,192.514z"/>
			</g>
		</g>
		<g>
			<g>
				<path fill="#253945" d="M250.815,152.596c0,0,3.179-2.262,7.949-5.655c1.177-0.872,2.5-1.746,3.922-2.634
					c1.411-0.904,2.9-1.858,4.44-2.845c3.079-1.975,6.364-4.082,9.648-6.188c6.704-3.99,13.515-7.805,18.573-10.749
					c5.204-2.677,8.673-4.461,8.673-4.461l-10.613-20.602c0,0-2.964,3.156-7.411,7.889c-4.258,4.982-9.898,11.468-15.268,18.036
					c-2.585,3.378-5.171,6.756-7.594,9.923c-1.19,1.569-2.339,3.085-3.431,4.524c-1.095,1.418-2.101,2.788-2.981,4.115
					C253.178,149.137,250.815,152.596,250.815,152.596z"/>
			</g>
		</g>
		<g>
			<g>
				<path fill="#253945" d="M304.021,120.064c0,0,3.472-1.78,8.681-4.449c5.265-2.551,12.425-5.659,19.518-8.91
					c7.227-2.94,14.509-5.743,19.944-7.912c5.54-1.882,9.234-3.137,9.234-3.137l-7.481-21.935c0,0-3.395,2.686-8.489,6.714
					c-4.941,4.302-11.461,9.918-17.744,15.606c-6.157,6.002-12.21,11.792-16.564,16.316
					C306.859,116.982,304.021,120.064,304.021,120.064z"/>
			</g>
		</g>
		<g>
			<g>
				<path fill="#253945" d="M361.396,95.657c0,0,3.694-1.251,9.236-3.128c5.578-1.764,13.122-3.77,20.614-5.944
					c7.569-1.883,15.196-3.541,20.89-4.891c2.857-0.625,5.275-0.971,6.951-1.295c1.68-0.3,2.641-0.472,2.641-0.472l-4.185-22.793
					c0,0-0.945,0.537-2.599,1.476c-1.646,0.964-4.01,2.223-6.778,3.938c-5.521,3.532-12.804,8.085-19.843,12.825
					c-6.975,5.032-13.813,9.854-18.78,13.704C364.656,93.024,361.396,95.657,361.396,95.657z"/>
			</g>
		</g>
		<g>
			<g>
				<path fill="#253945" d="M421.729,79.927c0,0,3.843-0.686,9.604-1.716c2.869-0.592,6.27-0.926,9.896-1.407
					c3.629-0.461,7.5-0.954,11.37-1.447l2.899-0.369c0.969-0.076,1.934-0.151,2.891-0.227c1.916-0.145,3.801-0.287,5.625-0.425
					c3.648-0.278,7.056-0.538,9.974-0.76c2.916-0.275,5.354-0.317,7.062-0.349c1.707-0.042,2.685-0.066,2.685-0.066L482.899,50
					c0,0-1.014,0.388-2.784,1.067c-1.771,0.669-4.288,1.621-7.272,2.988c-2.962,1.314-6.418,2.847-10.122,4.491
					c-1.828,0.82-3.716,1.667-5.634,2.528c-0.952,0.433-1.911,0.868-2.875,1.306l-2.868,1.458c-3.779,1.94-7.561,3.881-11.104,5.7
					c-3.505,1.834-6.76,3.429-9.479,5.097C425.341,77.811,421.729,79.927,421.729,79.927z"/>
			</g>
		</g>
		<g>
			<g>
				<path fill="#253945" d="M483.73,73.16c0,0,3.901-0.099,9.757-0.247c5.854-0.323,13.659,0.109,21.462,0.247
					c1.953,0.048,3.9,0.097,5.824,0.145c1.918,0.088,3.801,0.275,5.625,0.402c3.646,0.277,7.055,0.536,9.973,0.758
					c2.918,0.23,5.352,0.385,7.051,0.553c1.693,0.216,2.662,0.339,2.662,0.339l2.506-23.039c0,0-1.057,0.231-2.906,0.636
					c-1.85,0.453-4.496,1.188-7.639,2.028c-3.119,0.852-6.758,1.847-10.656,2.912c-1.936,0.547-3.922,1.058-5.938,1.678
					c-2.006,0.662-4.045,1.334-6.084,2.007c-8.123,2.75-16.062,5.217-21.928,7.712C487.614,71.613,483.73,73.16,483.73,73.16z"/>
			</g>
		</g>
		<g>
			<g>
				<path fill="#253945" d="M546.084,75.357c0,0,3.871,0.493,9.678,1.232c2.898,0.397,6.299,0.732,9.908,1.321
					c3.6,0.644,7.441,1.331,11.281,2.017c1.92,0.342,3.842,0.685,5.73,1.022c0.945,0.169,1.885,0.337,2.812,0.502
					c0.916,0.212,1.82,0.421,2.711,0.627c3.562,0.823,6.891,1.592,9.74,2.25c2.854,0.657,5.229,1.204,6.893,1.587
					c0.832,0.188,1.484,0.34,1.922,0.478c0.439,0.125,0.672,0.191,0.672,0.191l5.852-22.425c0,0-0.271,0.018-0.777,0.051
					c-0.504,0.021-1.254,0.101-2.207,0.209c-1.896,0.212-4.604,0.515-7.854,0.879c-3.205,0.375-6.947,0.812-10.957,1.281
					c-0.992,0.12-2,0.241-3.021,0.364c-1.025,0.17-2.064,0.343-3.112,0.518c-2.079,0.353-4.192,0.711-6.308,1.069
					c-4.168,0.727-8.336,1.453-12.244,2.135c-3.881,0.744-7.5,1.658-10.562,2.333C550.143,74.414,546.084,75.357,546.084,75.357z"/>
			</g>
		</g>
		<g>
			<g>
				<path fill="#253945" d="M607.432,86.585c0,0,3.754,1.067,9.385,2.667c2.812,0.798,6.098,1.73,9.615,2.729
					c3.463,1.174,7.158,2.425,10.854,3.676c3.678,1.293,7.426,2.404,10.822,3.764c3.398,1.342,6.574,2.595,9.299,3.668
					c2.723,1.072,4.99,1.966,6.578,2.591c1.596,0.606,2.477,1.024,2.479,1.024l9.072-21.325c0,0-1.074-0.107-2.998-0.162
					c-1.904-0.071-4.625-0.171-7.891-0.292c-3.229-0.104-6.99-0.226-11.023-0.355c-3.996-0.135-8.352,0.076-12.598,0.119
					c-4.229,0.099-8.453,0.198-12.416,0.29c-3.951,0.289-7.643,0.559-10.803,0.79C611.584,86.259,607.432,86.585,607.432,86.585z"/>
			</g>
		</g>
		<g>
			<g>
				<path fill="#253945" d="M666.463,106.706c0,0,3.553,1.608,8.887,4.02c2.666,1.205,5.775,2.61,9.109,4.116
					c3.256,1.667,6.73,3.445,10.203,5.223c1.736,0.889,3.473,1.777,5.18,2.652c1.713,0.873,3.404,1.714,4.973,2.661
					c3.172,1.823,6.131,3.526,8.668,4.985c2.535,1.458,4.648,2.673,6.133,3.523c1.492,0.829,2.293,1.388,2.293,1.389L734,115.504
					c0-0.001-1.035-0.279-2.934-0.611c-1.875-0.348-4.555-0.844-7.77-1.44c-3.176-0.574-6.881-1.242-10.852-1.958
					c-1.955-0.384-4.039-0.64-6.141-0.912c-2.092-0.27-4.217-0.545-6.34-0.819c-4.193-0.521-8.391-1.041-12.326-1.528
					c-3.949-0.295-7.637-0.571-10.799-0.807C670.613,106.995,666.463,106.706,666.463,106.706z"/>
			</g>
		</g>
		<g>
			<g>
				<path fill="#253945" d="M721.906,135.274c0,0,3.285,2.106,8.211,5.267c2.461,1.583,5.334,3.43,8.41,5.409
					c2.979,2.122,6.158,4.384,9.34,6.646c1.59,1.13,3.18,2.26,4.744,3.373c0.783,0.556,1.561,1.107,2.328,1.652
					c0.738,0.582,1.471,1.156,2.188,1.722c2.877,2.261,5.562,4.372,7.863,6.18s4.221,3.314,5.562,4.368
					c0.684,0.514,1.168,0.98,1.52,1.272c0.346,0.3,0.527,0.46,0.527,0.46l14.836-17.806c0,0-0.252-0.099-0.727-0.284
					c-0.477-0.177-1.148-0.474-2.066-0.771c-1.807-0.614-4.385-1.491-7.479-2.544c-3.064-1.024-6.637-2.22-10.465-3.501
					c-0.949-0.313-1.914-0.633-2.895-0.955c-1-0.283-2.012-0.57-3.034-0.859c-2.028-0.569-4.093-1.147-6.153-1.726
					c-4.078-1.124-8.158-2.247-11.98-3.299c-3.873-0.916-7.491-1.697-10.561-2.383C725.975,136.162,721.906,135.274,721.906,135.274
					z"/>
			</g>
		</g>
		<g>
			<g>
				<path fill="#253945" d="M772.602,171.624c0,0,2.951,2.555,7.375,6.389c2.193,1.936,4.834,4.106,7.521,6.589
					c2.646,2.525,5.473,5.218,8.297,7.913c5.77,5.267,11.004,11.064,15.074,15.271c2.016,2.121,3.697,3.889,4.875,5.125
					c1.115,1.291,1.754,2.028,1.754,2.028l17.256-15.47c0,0-0.939-0.534-2.59-1.467c-1.697-0.868-4.125-2.108-7.037-3.596
					c-5.838-2.919-13.363-6.909-21.289-10.232c-3.879-1.697-7.758-3.393-11.393-4.983c-3.646-1.523-7.162-2.772-10.09-3.906
					C776.504,173.087,772.602,171.624,772.602,171.624z"/>
			</g>
		</g>
		<g>
			<g>
				<path fill="#253945" d="M817.496,214.939c0,0,2.555,2.95,6.389,7.375c0.957,1.106,1.996,2.304,3.094,3.572
					c1.104,1.264,2.273,2.59,3.373,4.052c2.264,2.877,4.672,5.946,7.082,9.015c1.207,1.533,2.414,3.067,3.602,4.576
					c1.197,1.503,2.229,3.089,3.311,4.566c2.119,2.981,4.1,5.764,5.793,8.149c1.68,2.398,3.156,4.342,4.061,5.791
					c0.92,1.438,1.445,2.26,1.445,2.26l19.316-12.805c0,0-0.857-0.663-2.354-1.824c-1.479-1.17-3.774-2.708-6.421-4.595
					c-2.648-1.853-5.741-4.013-9.055-6.329c-1.668-1.131-3.303-2.353-5.106-3.475c-1.786-1.123-3.604-2.263-5.423-3.404
					c-3.6-2.235-7.195-4.469-10.568-6.564c-1.648-1.056-3.339-1.984-4.934-2.865c-1.586-0.878-3.081-1.708-4.465-2.475
					C821.152,216.947,817.496,214.939,817.496,214.939z"/>
			</g>
		</g>
		<g>
			<g>
				<path fill="#253945" d="M855.643,264.295c0,0,2.105,3.285,5.266,8.213c1.537,2.488,3.525,5.274,5.275,8.489
					c1.822,3.172,3.77,6.554,5.711,9.937c0.977,1.691,1.947,3.381,2.906,5.046c0.912,1.689,1.746,3.387,2.586,5.01
					c1.668,3.255,3.227,6.294,4.561,8.898c1.312,2.614,2.504,4.747,3.154,6.327c0.701,1.555,1.104,2.444,1.104,2.444l20.979-9.851
					c0,0-0.756-0.781-2.066-2.147c-1.264-1.387-3.322-3.237-5.668-5.487c-2.355-2.217-5.104-4.804-8.049-7.576
					c-1.477-1.366-2.957-2.791-4.525-4.193c-1.609-1.369-3.244-2.76-4.879-4.151c-3.24-2.731-6.48-5.461-9.521-8.021
					c-2.947-2.572-6.035-4.726-8.508-6.656C858.975,266.808,855.643,264.295,855.643,264.295z"/>
			</g>
		</g>
		<g>
			<g>
				<path fill="#253945" d="M886.205,318.659c0,0,1.607,3.555,4.018,8.888c2.559,5.271,5.297,12.58,8.174,19.833
					c0.721,1.814,1.436,3.628,2.141,5.414c0.621,1.817,1.229,3.605,1.818,5.336c1.174,3.464,2.268,6.698,3.205,9.469
					c0.908,2.781,1.789,5.06,2.199,6.719c0.467,1.642,0.73,2.58,0.73,2.58l22.197-6.668c0,0-0.631-0.883-1.729-2.429
					c-1.043-1.558-2.826-3.685-4.809-6.257c-2.008-2.539-4.348-5.5-6.854-8.674c-1.25-1.561-2.543-3.174-3.856-4.812
					c-1.394-1.59-2.808-3.204-4.222-4.819c-5.662-6.42-11.123-12.72-15.688-17.154C889.137,321.629,886.205,318.659,886.205,318.659
					z"/>
			</g>
		</g>
		<g>
			<g>
				<path fill="#253945" d="M908.49,376.897c0,0,1.064,3.753,2.664,9.382c0.398,1.407,0.834,2.931,1.291,4.544
					c0.229,0.806,0.463,1.634,0.703,2.479c0.195,0.858,0.396,1.734,0.604,2.625c0.822,3.564,1.699,7.365,2.576,11.167
					c0.439,1.901,0.879,3.802,1.312,5.671c0.451,1.867,0.699,3.745,1.046,5.54c0.644,3.603,1.241,6.962,1.759,9.844
					c0.51,2.881,0.938,5.28,1.234,6.962c0.214,1.692,0.336,2.662,0.336,2.662l22.936-3.349c0,0-0.49-0.965-1.345-2.653
					c-0.938-1.663-2.274-4.038-3.886-6.89c-1.604-2.807-3.475-6.081-5.48-9.589c-1.025-1.733-1.977-3.537-3.138-5.32
					c-1.144-1.775-2.302-3.583-3.462-5.389c-2.307-3.553-4.611-7.106-6.771-10.438c-0.539-0.821-1.068-1.629-1.586-2.421
					c-0.561-0.776-1.104-1.536-1.638-2.275c-1.063-1.467-2.069-2.854-2.998-4.136C910.953,380.266,908.49,376.897,908.49,376.897z"
					/>
			</g>
		</g>
		<g>
			<g>
				<path fill="#253945" d="M922.016,437.774c0,0,0.492,3.869,1.229,9.677c0.346,2.905,0.855,6.284,1.211,9.924
					c0.273,3.648,0.568,7.54,0.867,11.431c0.146,1.946,0.297,3.894,0.441,5.809c0.154,1.915,0.309,3.799,0.312,5.63
					c0.094,3.659,0.178,7.323,0.252,10.25c0.15,5.854,0.25,10.006,0.25,10.006h23.174c0,0-1.549-4.329-3.875-10.445
					c-1.162-3.009-2.52-6.645-3.973-10.404c-0.689-1.867-1.547-3.845-2.416-5.777c-0.861-1.925-1.736-3.912-2.611-5.868
					c-1.746-3.854-3.49-7.722-5.127-11.335c-1.711-3.569-3.486-6.853-4.912-9.651C923.943,441.476,922.016,437.774,922.016,437.774z
					"/>
			</g>
		</g>
	</g>
	<g>
		<path fill="#253945" d="M280.076,257.522c-1.568,0.1-3.316-0.626-4.453-2.038c-1.895-2.353-1.481-5.691,0.872-7.587
			c1.176-0.947,2.332-1.199,3.25-1.261c4.965-0.216,9.513-1.553,13.513-4.771c3.705-2.984,4.756-6.255,2.813-8.667l-0.095-0.118
			c-1.847-2.293-4.207-2.333-12.508,1.445c-9.999,4.561-17.198,6.578-23.783-1.597l-0.095-0.118
			c-6.016-7.469-3.996-17.241,4.414-24.016c5-4.026,10.394-6.238,15.994-6.869c1.474-0.217,3.468,0.212,4.89,1.977
			c1.895,2.353,1.481,5.691-0.872,7.586c-0.882,0.71-1.777,1.043-2.815,1.201c-4.42,0.651-8.048,1.925-10.872,4.199
			c-3.47,2.794-4.014,5.852-2.404,7.851l0.095,0.118c2.179,2.706,4.655,2.167,13.239-1.741c10.104-4.551,17.225-5.341,23.004,1.834
			l0.094,0.117c6.584,8.175,4.045,17.784-4.835,24.937C294.112,254.362,287.316,257.121,280.076,257.522z"/>
		<path fill="#253945" d="M346.302,170.804l-10.204,4.552c-2.688,1.2-5.879-0.022-7.079-2.711c-1.198-2.688,0.022-5.879,2.712-7.079
			l31.025-13.841c2.689-1.199,5.879,0.023,7.079,2.711c1.2,2.689-0.022,5.88-2.711,7.079l-10.204,4.553l14.979,33.576
			c1.32,2.965,0.022,6.354-2.941,7.677c-2.964,1.322-6.354,0.024-7.677-2.94L346.302,170.804z"/>
		<path fill="#253945" d="M427.114,163.388l-3.545-24.586c-0.464-3.214,1.712-6.121,4.925-6.584c3.213-0.463,6.12,1.712,6.583,4.925
			l3.502,24.288c1.229,8.519,6.123,12.314,13.146,11.301c7.025-1.013,10.671-5.887,9.477-14.183l-3.556-24.662
			c-0.465-3.213,1.711-6.12,4.925-6.583c3.213-0.463,6.121,1.711,6.584,4.924l3.491,24.213c2.283,15.843-5.488,24.898-19.537,26.924
			C439.06,185.391,429.334,178.784,427.114,163.388z"/>
		<path fill="#253945" d="M529.682,132.676c0.471-3.213,3.377-5.386,6.592-4.919l14.646,2.127
			c16.441,2.387,26.162,15.322,24.023,30.044l-0.021,0.149c-2.139,14.722-15.158,24.507-31.6,22.12l-14.646-2.127
			c-3.213-0.466-5.387-3.376-4.918-6.59L529.682,132.676z M544.832,171.809c9.416,1.368,16.691-4.063,18.035-13.329l0.021-0.15
			c1.348-9.267-4.062-16.69-13.479-18.058l-8.895-1.291l-4.582,31.537L544.832,171.809z"/>
		<path fill="#253945" d="M633.244,156.783c1.229-3.006,4.576-4.411,7.582-3.182s4.41,4.577,3.182,7.582l-15.941,39.004
			c-1.229,3.005-4.574,4.41-7.58,3.181c-3.01-1.229-4.41-4.576-3.186-7.582L633.244,156.783z"/>
		<path fill="#253945" d="M683.465,204.427l0.088-0.121c8.957-12.062,25.811-14.877,38.902-5.156
			c13.092,9.72,15.24,26.455,6.285,38.517l-0.09,0.121c-8.955,12.062-25.809,14.877-38.9,5.156
			C676.658,233.224,674.508,216.489,683.465,204.427z M718.801,230.665l0.092-0.121c5.398-7.274,4.566-17.295-2.949-22.876
			c-7.517-5.581-17.141-3.511-22.539,3.763l-0.092,0.121c-5.398,7.274-4.564,17.296,2.949,22.877
			C703.777,240.008,713.4,237.938,718.801,230.665z"/>
	</g>
	<g>
		<path fill="#253945" d="M271.339,738.348c2.076-2.496,5.691-2.828,8.188-0.754l11.381,9.461
			c12.775,10.619,14.312,26.728,4.803,38.164l-0.096,0.117c-9.51,11.438-25.721,12.985-38.496,2.366l-11.381-9.46
			c-2.498-2.076-2.83-5.691-0.754-8.188L271.339,738.348z M263.83,779.631c7.316,6.082,16.355,5.249,22.341-1.952l0.096-0.114
			c5.986-7.199,5.25-16.354-2.067-22.438l-6.91-5.744l-20.37,24.505L263.83,779.631z"/>
		<path fill="#253945" d="M336.883,811.15l0.061-0.142c5.875-13.827,21.597-20.519,36.604-14.142
			c15.009,6.377,21.026,22.141,15.151,35.968l-0.061,0.14c-5.875,13.827-21.596,20.521-36.604,14.143
			C337.025,840.742,331.008,824.979,336.883,811.15z M377.395,828.361l0.06-0.14c3.543-8.34,0.38-17.886-8.236-21.546
			c-8.616-3.661-17.483,0.608-21.026,8.948l-0.061,0.138c-3.543,8.338-0.38,17.888,8.236,21.547
			C364.98,840.971,373.851,836.699,377.395,828.361z"/>
		<path fill="#253945" d="M440.423,824.327c0.347-3.229,3.174-5.505,6.401-5.157l1.202,0.128c2.775,0.3,4.281,1.828,5.642,4.024
			l19.146,31.674l2.914-27.099c0.34-3.151,3.165-5.432,6.317-5.093c3.154,0.34,5.433,3.165,5.091,6.318l-4.497,41.812
			c-0.347,3.229-3.174,5.506-6.4,5.157l-0.375-0.04c-2.778-0.299-4.284-1.824-5.644-4.021l-19.856-32.813l-3.028,28.149
			c-0.339,3.153-3.166,5.431-6.318,5.092c-3.15-0.339-5.431-3.167-5.091-6.32L440.423,824.327z"/>
		<path fill="#253945" d="M534.439,828.01c-0.568-3.197,1.51-6.174,4.709-6.742l14.568-2.585c16.355-2.9,29.65,6.318,32.248,20.967
			l0.027,0.146c2.598,14.646-6.686,28.027-23.041,30.93l-14.57,2.585c-3.197,0.568-6.174-1.511-6.742-4.708L534.439,828.01z
			 M561.119,860.392c9.369-1.66,14.564-9.104,12.93-18.321l-0.023-0.148c-1.639-9.219-9.104-14.563-18.473-12.903l-8.848,1.57
			l5.568,31.373L561.119,860.392z"/>
		<path fill="#253945" d="M642.982,841.896l-17.916-37.125c-1.41-2.926-0.217-6.353,2.709-7.765l26.381-12.729
			c2.584-1.248,5.711-0.156,6.957,2.426c1.246,2.584,0.123,5.643-2.461,6.888l-21.217,10.239l4.66,9.654l18.156-8.763
			c2.584-1.247,5.707-0.154,6.955,2.43c1.246,2.584,0.123,5.641-2.461,6.888l-18.154,8.761l4.824,9.995l21.555-10.401
			c2.584-1.245,5.707-0.154,6.955,2.43s0.123,5.641-2.461,6.888l-26.723,12.896C647.822,846.015,644.395,844.82,642.982,841.896z"/>
		<path fill="#253945" d="M699.111,762.307c-2.127-2.449-1.873-6.071,0.578-8.199l13.854-12.029
			c5.074-4.406,10.244-6.396,15.146-6.051c4.152,0.291,8.072,2.389,11.342,6.148l0.098,0.115c5.447,6.271,5.678,12.871,2.562,19.074
			l12.537,2.114c1.797,0.342,3.156,0.758,4.348,2.125c2.127,2.451,1.461,5.83-0.646,7.661c-1.998,1.733-4.148,1.903-6.312,1.481
			l-17.957-3.406l-7.014,6.089l7.572,8.726c2.127,2.449,1.873,6.071-0.578,8.199c-2.449,2.132-6.07,1.875-8.201-0.575
			L699.111,762.307z M729.805,761.956c4.277-3.713,4.748-8.122,1.828-11.486l-0.1-0.111c-3.27-3.767-7.572-3.428-11.85,0.286
			l-8.725,7.574l9.949,11.46L729.805,761.956z"/>
	</g>
	<g>
		<path fill="#253945" d="M133.801,507.887c4.511-21.715,11.003-42.547,19.227-62.247c-0.936,15.732-0.765,31.38,0.466,46.833
			c4.773-0.426,9.546-0.831,14.32-1.213c-5.517,19.41-9.283,39.771-11.053,60.823c-3.944-15.078-6.862-30.493-8.709-46.134
			C143.3,506.573,138.549,507.219,133.801,507.887z"/>
	</g>
	<g>
		<path fill="#253945" d="M864.738,507.798c-4.57-21.485-10.902-42.174-18.799-61.864c0.676,15.643,0.361,31.194-0.9,46.571
			c-4.771-0.433-9.545-0.847-14.32-1.24c5.471,19.412,9.363,39.678,11.48,60.585c3.693-15.054,6.469-30.396,8.283-45.941
			C855.236,506.518,859.988,507.148,864.738,507.798z"/>
	</g>
</g>
</svg>
