<?xml version="1.0" encoding="utf-8"?>
<!-- Generator: Adobe Illustrator 16.0.5, SVG Export Plug-In . SVG Version: 6.00 Build 0)  -->
<!DOCTYPE svg PUBLIC "-//W3C//DTD SVG 1.1//EN" "http://www.w3.org/Graphics/SVG/1.1/DTD/svg11.dtd">
<svg version="1.1" id="Pattern" xmlns="http://www.w3.org/2000/svg" xmlns:xlink="http://www.w3.org/1999/xlink" x="0px" y="0px"
	 width="2800px" height="1000px" viewBox="0 0 2800 1000" enable-background="new 0 0 2800 1000" xml:space="preserve">
<rect fill="#F56B5F" width="2800" height="1000"/>
<g>
	<g>
		<path fill="#FBC68D" d="M1207.924,918.418c47.658,0,84.99-43.654,84.99-99.387V590.658c0-40.215,11.993-65.01,36.665-75.81
			c5.848-2.559,9.626-8.336,9.626-14.718s-3.778-12.16-9.626-14.718c-24.672-10.799-36.665-35.594-36.665-75.807V181.234
			c0-55.735-37.332-99.394-84.99-99.394H876.405c-8.395,10.466-16.503,21.167-24.268,32.134h355.785
			c30.132,0,52.856,28.916,52.856,67.26v228.375c0,47.042,15.098,74.5,32.94,90.523c-17.844,16.024-32.94,43.483-32.94,90.526
			v228.373c0,37.711-23.217,67.252-52.856,67.252h-63.776c-8.873,0-16.067,7.192-16.067,16.065v209.589
			c10.569,4.68,21.284,9.084,32.134,13.219V918.418H1207.924z"/>
		<path fill="#FBC68D" d="M1426.061,918.418c47.656,0,84.988-43.654,84.988-99.387V590.658c0-40.215,11.99-65.01,36.664-75.81
			c5.85-2.559,9.627-8.336,9.627-14.718s-3.777-12.16-9.627-14.718c-24.674-10.799-36.664-35.594-36.664-75.807V181.234
			c0-55.735-37.332-99.394-84.988-99.394h-63.781c-8.873,0-16.067,7.194-16.067,16.067s7.194,16.067,16.067,16.067h63.781
			c30.13,0,52.854,28.916,52.854,67.26v228.375c0,47.042,15.099,74.5,32.941,90.523c-17.845,16.024-32.941,43.483-32.941,90.526
			v228.373c0,37.711-23.214,67.252-52.854,67.252h-63.781c-8.873,0-16.067,7.192-16.067,16.065v264.509
			c10.644,0.819,21.358,1.373,32.134,1.69v-250.13H1426.061z"/>
		<path fill="#FBC68D" d="M1644.193,918.418c47.66,0,84.991-43.654,84.991-99.387V590.658c0-40.215,11.991-65.014,36.664-75.805
			c5.852-2.562,9.627-8.341,9.627-14.723s-3.775-12.16-9.627-14.722c-24.673-10.792-36.664-35.588-36.664-75.803V181.234
			c0-55.735-37.332-99.394-84.991-99.394h-63.777c-8.872,0-16.065,7.194-16.065,16.067s7.193,16.067,16.065,16.067h63.777
			c30.135,0,52.857,28.916,52.857,67.26v228.375c0,29.667,6.288,66.675,32.855,90.523c-26.567,23.851-32.855,60.86-32.855,90.526
			v228.373c0,37.711-23.22,67.252-52.857,67.252h-63.777c-8.872,0-16.065,7.192-16.065,16.065v245.771
			c10.817-2.762,21.534-5.781,32.135-9.064V918.418H1644.193z"/>
	</g>
	<g>
		<g>
			<path fill="#FBC68D" d="M587.619,730.908c-7.12,0-13.625-4.767-15.526-11.978l-0.521-1.983
				c-2.238-8.586,2.909-17.361,11.495-19.604c8.572-2.229,17.363,2.908,19.6,11.498l0.499,1.9
				c2.263,8.578-2.859,17.369-11.44,19.631C590.354,730.736,588.976,730.908,587.619,730.908z"/>
		</g>
		<g>
			<path fill="#FBC68D" d="M687.907,961.631c-5.348,0-10.576-2.67-13.625-7.533l-1.997-3.19c-4.691-7.531-2.392-17.439,5.14-22.133
				c7.528-4.693,17.44-2.394,22.135,5.141l1.941,3.104c4.717,7.521,2.445,17.438-5.072,22.15
				C693.777,960.834,690.824,961.631,687.907,961.631z M656.361,906.969c-5.766,0-11.336-3.108-14.219-8.562l-1.771-3.369
				c-4.104-7.869-1.049-17.574,6.818-21.678c7.87-4.097,17.574-1.052,21.676,6.815l1.687,3.213
				c4.146,7.849,1.147,17.566-6.696,21.713C661.463,906.367,658.894,906.969,656.361,906.969z M629.023,850.074
				c-6.188,0-12.086-3.597-14.729-9.629l-1.52-3.515c-3.499-8.153,0.271-17.602,8.426-21.104c8.157-3.496,17.603,0.271,21.104,8.426
				l1.432,3.31c3.557,8.127-0.147,17.602-8.277,21.155C633.361,849.639,631.174,850.074,629.023,850.074z M606.062,791.277
				c-6.646,0-12.862-4.154-15.173-10.783l-1.237-3.588c-2.877-8.396,1.594-17.531,9.986-20.41c8.394-2.867,17.532,1.596,20.408,9.99
				l1.188,3.434c2.921,8.377-1.506,17.537-9.884,20.459C609.601,790.988,607.815,791.277,606.062,791.277z"/>
		</g>
		<g>
			<path fill="#FBC68D" d="M722.467,1012.404c-4.931,0-9.797-2.261-12.945-6.531l-1.224-1.668
				c-5.24-7.158-3.683-17.211,3.479-22.451c7.163-5.246,17.213-3.684,22.455,3.475l1.154,1.572
				c5.268,7.146,3.744,17.205-3.397,22.471C729.118,1011.385,725.778,1012.404,722.467,1012.404z"/>
		</g>
	</g>
	<g>
		<g>
			<path fill="#FBC68D" d="M751.508-17.553c-3.589,0-7.202-1.196-10.191-3.656c-6.854-5.633-7.845-15.759-2.208-22.614l1.32-1.599
				c5.662-6.832,15.792-7.779,22.624-2.116c6.832,5.662,7.779,15.792,2.116,22.623l-1.237,1.498
				C760.754-19.553,756.149-17.553,751.508-17.553z"/>
		</g>
		<g>
			<path fill="#FBC68D" d="M609.088,232.292c-1.804,0-3.638-0.306-5.433-0.951c-8.353-3.001-12.688-12.204-9.688-20.552l1.479-4.08
				c3.046-8.333,12.268-12.621,20.606-9.569c8.334,3.048,12.619,12.274,9.569,20.608l-1.417,3.907
				C621.854,228.211,615.674,232.292,609.088,232.292z M636.442,165.448c-2.25,0-4.533-0.475-6.71-1.477
				c-8.061-3.711-11.586-13.253-7.875-21.313l1.83-3.945c3.762-8.038,13.323-11.501,21.361-7.743
				c8.038,3.759,11.503,13.325,7.743,21.363l-1.748,3.764C648.338,161.979,642.521,165.448,636.442,165.448z M669.483,101.212
				c-2.696,0-5.433-0.679-7.941-2.111c-7.71-4.395-10.396-14.207-6.001-21.916l2.159-3.764c4.438-7.686,14.261-10.314,21.949-5.878
				c7.684,4.438,10.314,14.266,5.878,21.949l-2.069,3.607C680.493,98.297,675.066,101.212,669.483,101.212z M707.94,40.066
				c-3.154,0-6.34-0.926-9.128-2.855c-7.3-5.051-9.12-15.059-4.072-22.355l2.459-3.54c5.078-7.281,15.086-9.067,22.371-3.986
				c7.277,5.078,9.061,15.094,3.983,22.371l-2.389,3.438C718.047,37.648,713.036,40.066,707.94,40.066z"/>
		</g>
		<g>
			<path fill="#FBC68D" d="M588.19,299.161c-1.371,0-2.763-0.177-4.149-0.547c-8.573-2.285-13.67-11.089-11.384-19.665l0.521-1.951
				c2.295-8.572,11.106-13.657,19.676-11.37c8.569,2.293,13.661,11.102,11.368,19.674l-0.519,1.927
				C601.788,294.416,595.292,299.161,588.19,299.161z"/>
		</g>
	</g>
	<g>
		<g>
			<path fill="#FBC68D" d="M2208.67,299.167c-7.102,0-13.598-4.745-15.516-11.931l-0.498-1.854
				c-2.334-8.559,2.715-17.393,11.272-19.727c8.579-2.354,17.394,2.714,19.729,11.271l0.547,2.026
				c2.285,8.575-2.812,17.379-11.39,19.664C2211.434,298.99,2210.041,299.167,2208.67,299.167z"/>
		</g>
		<g>
			<path fill="#FBC68D" d="M2187.881,232.604c-6.582,0-12.76-4.078-15.115-10.63l-1.438-3.978
				c-3.008-8.349,1.318-17.556,9.667-20.563c8.352-3.003,17.559,1.32,20.562,9.667l1.441,3.993
				c3.005,8.35-1.324,17.554-9.677,20.559C2191.527,232.296,2189.691,232.604,2187.881,232.604z M2160.672,165.995
				c-6.089,0-11.914-3.478-14.615-9.372l-1.733-3.751c-3.749-8.043-0.271-17.603,7.771-21.353
				c8.059-3.748,17.604-0.267,21.353,7.772l1.819,3.933c3.699,8.067,0.16,17.604-7.903,21.304
				C2165.188,165.523,2162.911,165.995,2160.672,165.995z M2127.812,101.979c-5.592,0-11.023-2.92-13.985-8.126l-2.062-3.612
				c-4.421-7.694-1.77-17.517,5.923-21.938c7.688-4.423,17.516-1.769,21.937,5.925l2.144,3.738
				c4.386,7.714,1.688,17.523-6.024,21.91C2133.232,101.302,2130.502,101.979,2127.812,101.979z M2089.582,41.021
				c-5.111,0-10.137-2.432-13.252-6.962l-2.369-3.419c-5.062-7.288-3.26-17.299,4.028-22.363c7.285-5.068,17.3-3.259,22.364,4.025
				l2.447,3.544c5.032,7.311,3.182,17.312-4.127,22.343C2095.893,40.104,2092.72,41.021,2089.582,41.021z"/>
		</g>
		<g>
			<path fill="#FBC68D" d="M2046.248-16.46c-4.629,0-9.219-1.989-12.396-5.838l-1.263-1.525c-5.659-6.831-4.715-16.961,2.118-22.623
				c6.825-5.663,16.957-4.715,22.622,2.116l1.298,1.573c5.652,6.843,4.686,16.969-2.156,22.62
				C2053.479-17.666,2049.854-16.46,2046.248-16.46z"/>
		</g>
	</g>
	<g>
		<g>
			<path fill="#FBC68D" d="M2074.766,1011.895c-3.295,0-6.616-1.008-9.479-3.104c-7.163-5.24-8.716-15.293-3.477-22.453l1.14-1.557
				c5.213-7.193,15.263-8.779,22.438-3.586c7.188,5.209,8.789,15.256,3.585,22.438l-1.23,1.687
				C2084.596,1009.615,2079.713,1011.895,2074.766,1011.895z"/>
		</g>
		<g>
			<path fill="#FBC68D" d="M2109.213,961.211c-2.909,0-5.855-0.793-8.504-2.449c-7.523-4.705-9.807-14.619-5.104-22.143l1.938-3.105
				c4.686-7.537,14.598-9.848,22.133-5.164c7.535,4.689,9.846,14.599,5.162,22.134l-1.983,3.178
				C2119.805,958.535,2114.569,961.211,2109.213,961.211z M2140.67,906.643c-2.533,0-5.104-0.602-7.5-1.866
				c-7.842-4.148-10.839-13.869-6.691-21.716l1.668-3.178c4.092-7.881,13.795-10.938,21.664-6.846
				c7.873,4.092,10.938,13.793,6.846,21.664l-1.77,3.383C2152.004,903.531,2146.432,906.643,2140.67,906.643z M2167.928,849.857
				c-2.129,0-4.291-0.425-6.369-1.324c-8.146-3.521-11.892-12.98-8.366-21.123l1.446-3.359c3.5-8.151,12.937-11.932,21.101-8.43
				c8.154,3.5,11.929,12.945,8.43,21.1l-1.485,3.445C2180.061,846.23,2174.143,849.857,2167.928,849.857z M2190.833,791.184
				c-1.745,0-3.521-0.284-5.265-0.891c-8.383-2.906-12.823-12.061-9.916-20.445l1.188-3.438c2.87-8.398,12.021-12.883,20.401-10
				c8.397,2.871,12.874,12.008,9.998,20.4l-1.229,3.565C2203.71,787.018,2197.489,791.184,2190.833,791.184z"/>
		</g>
		<g>
			<path fill="#FBC68D" d="M2209.242,730.904c-1.342,0-2.707-0.168-4.064-0.521c-8.585-2.24-13.73-11.016-11.496-19.602l0.51-1.943
				c2.239-8.59,11.015-13.729,19.603-11.496c8.587,2.24,13.731,11.017,11.496,19.603l-0.509,1.94
				C2222.893,726.115,2216.376,730.904,2209.242,730.904z"/>
		</g>
	</g>
	<g>
		<path fill="#FBC68D" d="M1398.429,1184.859c-377.634,0-684.858-307.229-684.858-684.861c0-377.633,307.226-684.86,684.858-684.86
			c377.634,0,684.86,307.228,684.86,684.86C2083.29,877.631,1776.062,1184.859,1398.429,1184.859z M1398.429-152.728
			c-359.915,0-652.726,292.811-652.726,652.726c0,359.914,292.811,652.726,652.726,652.726
			c359.914,0,652.729-292.812,652.729-652.726C2051.156,140.083,1758.343-152.728,1398.429-152.728z"/>
	</g>
	<g>
		<path fill="#FBC68D" d="M1398.429,1520.26c-272.521,0-528.729-106.127-721.433-298.83
			c-192.703-192.703-298.828-448.907-298.828-721.431c0-272.521,106.125-528.731,298.828-721.433
			c192.701-192.703,448.912-298.828,721.433-298.828c272.521,0,528.729,106.125,721.433,298.828
			c192.703,192.703,298.83,448.912,298.83,721.433c0,272.521-106.127,528.728-298.83,721.431S1670.95,1520.26,1398.429,1520.26z
			 M1398.429-488.127c-263.938,0-512.078,102.783-698.711,289.416C513.085-12.08,410.302,236.061,410.302,499.999
			c0,263.938,102.783,512.076,289.416,698.71c186.634,186.633,434.774,289.416,698.711,289.416
			c263.938,0,512.077-102.783,698.712-289.416c186.631-186.635,289.416-434.771,289.416-698.71
			c0-263.936-102.785-512.078-289.416-698.71C1910.506-385.345,1662.368-488.127,1398.429-488.127z"/>
	</g>
	<g>
		<g>
			<g>
				<path fill="#FBC68D" d="M2416.682,499.999c0,0-0.238,9.302-0.598,23.253c-0.176,6.975-0.38,15.109-0.6,23.83
					c-0.016,4.365-0.382,8.856-0.75,13.42c-0.35,4.565-0.701,9.201-1.055,13.838c-0.706,9.277-1.408,18.551-2.068,27.248
					c-0.839,8.677-2.059,16.728-2.882,23.652c-1.755,13.84-2.928,23.063-2.928,23.063l54.658,7.978c0,0-2.188-10.15-5.474-25.365
					c-1.709-7.56-3.455-16.295-5.802-25.606c-2.542-9.249-5.252-19.113-7.962-28.979c-1.361-4.859-2.725-9.725-4.063-14.51
					c-1.322-4.767-2.62-9.431-4.218-13.941c-3.013-8.938-5.825-17.282-8.233-24.434
					C2419.895,509.379,2416.682,499.999,2416.682,499.999z"/>
			</g>
		</g>
		<g>
			<g>
				<path fill="#FBC68D" d="M2405.804,648.307c0,0-0.289,2.308-0.8,6.345c-0.709,4.004-1.729,9.729-2.945,16.592
					c-1.229,6.862-2.656,14.875-4.188,23.457c-0.824,4.278-1.417,8.752-2.49,13.203c-1.032,4.457-2.079,8.985-3.127,13.52
					c-2.091,9.058-4.182,18.117-6.14,26.609c-0.49,2.127-0.969,4.213-1.438,6.258c-0.571,2.021-1.129,3.992-1.676,5.914
					c-1.09,3.846-2.121,7.477-3.08,10.83c-3.804,13.416-6.346,22.358-6.346,22.358l52.899,15.896c0,0-0.649-10.353-1.624-25.873
					c-0.255-3.842-0.532-8-0.827-12.396c-0.152-2.188-0.311-4.438-0.472-6.733c-0.268-2.316-0.537-4.676-0.812-7.082
					c-1.126-9.512-2.326-19.654-3.524-29.803c-0.616-5.002-1.231-10.009-1.841-14.937c-0.564-4.895-1.598-9.783-2.347-14.44
					c-1.632-9.271-3.153-17.925-4.46-25.341c-1.33-7.312-2.438-13.407-3.217-17.678
					C2406.368,650.742,2405.804,648.307,2405.804,648.307z"/>
			</g>
		</g>
		<g>
			<g>
				<path fill="#FBC68D" d="M2373.572,793.393c0,0-0.633,2.24-1.742,6.15c-0.979,3.953-3.078,9.387-5.244,16.012
					c-2.233,6.605-4.845,14.312-7.638,22.566c-1.403,4.127-2.856,8.387-4.338,12.719c-1.68,4.26-3.386,8.582-5.096,12.906
					c-6.857,17.283-13.388,34.707-19.484,47.266c-5.741,12.711-9.575,21.185-9.575,21.185l50,23.477c0,0,0.884-10.332,2.203-25.826
					c1.624-15.248,2.062-36.014,2.651-56.229c0.13-5.037,0.264-10.074,0.392-15.033c-0.089-4.994-0.18-9.904-0.266-14.654
					c-0.236-9.401-0.455-18.178-0.646-25.7c-0.278-7.482-0.229-13.58-0.692-17.984
					C2373.765,795.883,2373.572,793.393,2373.572,793.393z"/>
			</g>
		</g>
		<g>
			<g>
				<path fill="#FBC68D" d="M2320.455,932.195c0,0-0.956,2.117-2.627,5.821c-1.559,3.769-4.395,8.849-7.523,15.08
					c-3.179,6.205-6.889,13.451-10.859,21.209c-2.006,3.867-3.994,7.912-6.167,11.941c-2.283,3.965-4.604,7.994-6.925,12.025
					c-4.633,8.062-9.271,16.122-13.611,23.682c-4.174,7.66-8.916,14.301-12.579,20.231c-7.526,11.744-12.545,19.574-12.545,19.574
					l46.036,30.519c0,0,2.373-10.095,5.932-25.234c1.645-7.586,3.996-16.103,5.559-25.703c1.688-9.428,3.482-19.479,5.284-29.531
					c0.861-4.965,1.729-9.932,2.581-14.817c0.729-4.928,1.282-9.842,1.895-14.533c1.143-9.332,2.213-18.047,3.132-25.512
					c0.835-7.443,1.735-13.482,1.938-17.904C2320.279,934.686,2320.455,932.195,2320.455,932.195z"/>
			</g>
		</g>
		<g>
			<g>
				<path fill="#FBC68D" d="M2247.616,1061.764c0,0-1.255,1.957-3.448,5.388c-2.152,3.45-5.676,8.088-9.673,13.803
					c-4.04,5.684-8.757,12.312-13.809,19.42c-2.573,3.521-5.032,7.305-7.889,10.883c-2.828,3.603-5.703,7.252-8.579,10.908
					c-5.746,7.316-11.489,14.627-16.878,21.484c-2.625,3.481-5.414,6.646-8.043,9.655c-2.616,3.021-5.091,5.877-7.375,8.515
					c-9.136,10.545-15.224,17.578-15.224,17.578l41.125,36.87c0,0,3.798-9.651,9.491-24.137c1.396-3.588,2.908-7.475,4.504-11.586
					c1.597-4.092,3.287-8.379,4.763-13.008c3.023-9.09,6.258-18.787,9.484-28.48c1.568-4.793,3.143-9.582,4.688-14.303
					c1.56-4.682,2.729-9.531,4.036-14.063c2.483-9.076,4.802-17.548,6.787-24.81c1.905-7.244,3.654-13.104,4.561-17.41
					C2247.079,1064.203,2247.616,1061.764,2247.616,1061.764z"/>
			</g>
		</g>
		<g>
			<g>
				<path fill="#FBC68D" d="M2156.701,1179.396c0,0-1.521,1.756-4.182,4.836c-2.806,2.944-6.813,7.157-11.618,12.211
					c-9.701,10.029-22.184,23.846-35.929,36.396c-6.73,6.422-13.463,12.84-19.772,18.861c-6.396,5.914-12.694,11.09-17.923,15.701
					c-10.544,9.137-17.573,15.229-17.573,15.229l35.354,42.439c0,0,5.143-9.021,12.854-22.549
					c3.768-6.773,8.311-14.433,12.766-22.955c4.295-8.566,8.882-17.707,13.468-26.847c9.319-17.881,17.056-36.725,23.05-50.37
					c2.93-6.839,5.374-12.537,7.08-16.525C2155.819,1181.732,2156.701,1179.396,2156.701,1179.396z"/>
			</g>
		</g>
		<g>
			<g>
				<path fill="#FBC68D" d="M2049.704,1282.631c0,0-0.438,0.379-1.263,1.094c-0.838,0.699-1.993,1.81-3.616,3.033
					c-3.201,2.514-7.776,6.104-13.26,10.41c-5.483,4.312-11.882,9.344-18.739,14.729c-1.713,1.351-3.454,2.72-5.22,4.104
					c-1.827,1.301-3.681,2.615-5.548,3.941c-3.729,2.649-7.521,5.342-11.31,8.036c-7.578,5.396-15.155,10.783-22.262,15.841
					c-7.33,4.715-14.177,9.118-20.04,12.893c-11.74,7.533-19.57,12.555-19.57,12.555l28.816,47.117c0,0,6.389-8.188,15.969-20.479
					c4.727-6.132,10.245-13.183,15.991-20.818c5.483-7.869,11.334-16.262,17.182-24.656c2.868-4.155,5.735-8.315,8.562-12.405
					c1.396-2.037,2.779-4.06,4.154-6.05c1.295-2.079,2.571-4.133,3.832-6.146c4.957-8.014,9.586-15.49,13.553-21.904
					c3.888-6.344,7.127-11.631,9.395-15.33c1.15-1.812,1.932-3.381,2.508-4.391
					C2049.402,1283.18,2049.704,1282.631,2049.704,1282.631z"/>
			</g>
		</g>
		<g>
			<g>
				<path fill="#FBC68D" d="M1928.879,1369.266c0,0-1.909,1.33-5.468,3.31c-3.53,2.024-8.566,4.922-14.616,8.396
					c-6.045,3.478-13.098,7.531-20.654,11.881c-3.734,2.259-7.769,4.263-11.849,6.34c-4.069,2.089-8.21,4.207-12.349,6.324
					c-8.276,4.236-16.555,8.474-24.315,12.445c-7.942,3.59-15.355,6.938-21.712,9.807c-12.71,5.75-21.178,9.584-21.178,9.584
					l21.62,50.824c0,0,7.512-7.182,18.781-17.953c5.521-5.338,11.964-11.566,18.868-18.244c6.569-6.994,13.574-14.455,20.581-21.916
					c3.44-3.697,6.875-7.396,10.267-11.043c3.365-3.627,6.684-7.143,9.701-10.854c6.062-7.224,11.721-13.957,16.571-19.734
					c4.763-5.719,8.729-10.488,11.506-13.828C1927.424,1371.334,1928.879,1369.266,1928.879,1369.266z"/>
			</g>
		</g>
		<g>
			<g>
				<path fill="#FBC68D" d="M1796.738,1437.352c-0.004,0-2.104,1-5.909,2.439c-3.784,1.49-9.189,3.619-15.677,6.178
					c-6.489,2.56-14.058,5.547-22.164,8.744c-8.092,3.244-17.022,5.887-25.792,8.973c-8.806,2.98-17.611,5.966-25.868,8.759
					c-8.388,2.381-16.213,4.602-22.921,6.508c-13.415,3.813-22.358,6.354-22.358,6.354l13.938,53.443c0,0,8.483-5.992,21.214-14.986
					c6.249-4.469,13.537-9.682,21.347-15.268c7.521-5.959,15.541-12.318,23.563-18.676c7.896-6.43,15.857-12.396,22.963-18.729
					c7.054-6.256,13.631-12.1,19.271-17.104c5.547-4.971,10.168-9.109,13.399-12.002
					C1794.977,1439.145,1796.734,1437.352,1796.738,1437.352z"/>
			</g>
		</g>
		<g>
			<g>
				<path fill="#FBC68D" d="M1656.047,1485.305c0,0-0.557,0.16-1.604,0.459c-1.044,0.326-2.599,0.691-4.582,1.136
					c-3.967,0.913-9.626,2.221-16.426,3.784c-6.794,1.568-14.722,3.4-23.213,5.361c-2.122,0.49-4.279,0.992-6.47,1.498
					c-2.204,0.393-4.438,0.793-6.691,1.197c-4.507,0.801-9.085,1.615-13.661,2.432c-9.152,1.642-18.308,3.275-26.887,4.812
					c-8.604,1.399-16.711,2.201-23.619,3.147c-13.838,1.762-23.063,2.937-23.063,2.937l5.976,54.907c0,0,9.276-4.655,23.187-11.643
					c6.891-3.555,14.914-7.395,23.337-12.043c8.314-4.772,17.188-9.859,26.059-14.953c4.37-2.533,8.735-5.062,13.035-7.559
					c2.13-1.244,4.243-2.479,6.335-3.699c2.056-1.33,4.087-2.645,6.084-3.934c7.896-5.146,15.267-9.949,21.582-14.062
					c6.218-4.088,11.396-7.496,15.022-9.883c1.801-1.18,3.213-2.117,4.149-2.836
					C1655.547,1485.674,1656.047,1485.305,1656.047,1485.305z"/>
			</g>
		</g>
		<g>
			<g>
				<path fill="#FBC68D" d="M1509.832,1512.066c0,0-2.307,0.293-6.343,0.807c-4.049,0.4-9.851,0.77-16.804,1.318
					c-6.955,0.526-15.072,1.147-23.77,1.809c-4.348,0.301-8.834,0.746-13.408,0.957c-4.578,0.113-9.226,0.232-13.878,0.346
					c-18.602,0.328-37.202,1.357-51.151,0.588c-13.951-0.354-23.252-0.588-23.252-0.588l-1.984,55.199c0,0,9.844-3.207,24.607-8.012
					c14.656-4.4,33.938-12.344,52.772-19.59c4.688-1.843,9.38-3.689,13.996-5.506c4.585-1.91,9.063-4.031,13.389-5.951
					c8.565-3.898,16.562-7.535,23.414-10.654c6.791-3.133,12.406-5.646,16.312-7.555
					C1507.615,1513.219,1509.832,1512.066,1509.832,1512.066z"/>
			</g>
		</g>
		<g>
			<g>
				<path fill="#FBC68D" d="M1361.229,1517.303c0,0-2.327-0.061-6.396-0.162c-4.072-0.071-9.888-0.176-16.836-0.83
					c-6.956-0.528-15.071-1.147-23.765-1.809c-4.351-0.33-8.841-0.672-13.406-1.018c-2.281-0.181-4.582-0.357-6.891-0.535
					l-6.91-0.883c-9.227-1.177-18.451-2.353-27.1-3.449c-8.644-1.146-16.75-1.941-23.587-3.354
					c-13.729-2.457-22.884-4.092-22.884-4.092l-9.973,54.328c0,0,10.196-1.688,25.495-4.217c7.562-1.101,16.459-3.236,25.857-5.252
					c9.317-2.08,19.26-4.295,29.2-6.511l7.36-1.674c2.444-0.67,4.884-1.338,7.302-2.002c4.805-1.336,9.53-2.653,14.106-3.93
					c9.031-2.557,17.461-4.945,24.687-6.99c7.159-1.926,13.097-3.979,17.24-5.412
					C1358.865,1518.105,1361.229,1517.303,1361.229,1517.303z"/>
			</g>
		</g>
		<g>
			<g>
				<path fill="#FBC68D" d="M1213.456,1501.172c0,0-2.289-0.408-6.292-1.121c-3.994-0.771-9.756-1.602-16.564-3.088
					c-13.569-3.217-31.748-7.166-49.787-11.658c-17.858-5.182-35.838-9.963-49.133-14.164c-13.209-4.475-22.016-7.457-22.016-7.457
					l-17.83,52.277c0,0,10.328-0.152,25.821-0.381c15.475-0.533,36.11-2.178,56.188-3.551c20.285-2.062,40.275-4.785,55.003-6.617
					c7.396-1.035,13.591-2.322,17.875-3.031C1211.005,1501.611,1213.456,1501.172,1213.456,1501.172z"/>
			</g>
		</g>
		<g>
			<g>
				<path fill="#FBC68D" d="M1069.663,1463.686c0,0-8.804-2.989-22.008-7.479c-12.953-5.17-30.312-11.846-47.533-18.855
					c-16.904-7.748-33.97-15.155-46.519-21.231c-12.414-6.363-20.688-10.604-20.688-10.604l-25.295,49.101
					c0,0,10.238,1.364,25.596,3.407c15.4,1.712,36.031,3.152,56.095,4.738c20.4,0.859,40.533,1.201,55.372,1.551
					C1059.67,1463.936,1069.663,1463.686,1069.663,1463.686z"/>
			</g>
		</g>
		<g>
			<g>
				<path fill="#FBC68D" d="M932.917,1405.516c0,0-8.269-4.254-20.672-10.635c-12.054-7.018-28.286-16.109-44.265-25.615
					c-7.828-5.02-15.657-10.041-22.995-14.75c-3.671-2.352-7.22-4.623-10.583-6.778c-3.393-2.119-6.542-4.199-9.35-6.277
					c-11.367-8.084-18.942-13.479-18.942-13.479l-32.176,44.896c0,0,9.937,2.828,24.843,7.072c3.666,1.1,7.739,2.11,12.092,3.088
					c4.312,1,8.856,2.061,13.562,3.154c9.3,2.118,19.222,4.377,29.144,6.637c20.022,3.887,39.92,7.115,54.546,9.635
					C922.996,1404.291,932.917,1405.516,932.917,1405.516z"/>
			</g>
		</g>
		<g>
			<g>
				<path fill="#FBC68D" d="M806.109,1327.98c0,0-1.896-1.347-5.211-3.703c-3.285-2.4-8.13-5.625-13.668-9.861
					c-10.898-8.709-25.738-19.943-40.075-31.785c-7.03-6.092-14.061-12.18-20.649-17.891c-6.559-5.744-12.861-10.904-17.792-15.854
					c-10.095-9.625-16.827-16.047-16.827-16.047l-38.342,39.76c0,0,9.438,4.226,23.589,10.562
					c6.917,3.256,15.503,6.406,24.438,9.932c8.905,3.438,18.404,7.099,27.904,10.756c19.151,6.869,38.472,12.832,52.566,17.465
					c7.142,2.203,13.28,3.697,17.458,4.884C803.707,1327.334,806.109,1327.98,806.109,1327.98z"/>
			</g>
		</g>
		<g>
			<g>
				<path fill="#FBC68D" d="M691.886,1232.84c0,0-1.683-1.604-4.628-4.408c-2.875-2.879-7.315-6.655-12.048-11.787
					c-4.812-5.053-10.426-10.942-16.44-17.256c-3.012-3.151-6.119-6.414-9.278-9.729c-1.581-1.656-3.173-3.322-4.774-4.998
					l-4.558-5.268c-6.089-7.029-12.178-14.062-17.888-20.652c-2.855-3.295-5.617-6.48-8.233-9.502
					c-2.624-3.012-4.844-6.078-7.033-8.793c-8.618-10.967-14.364-18.283-14.364-18.283l-43.693,33.789c0,0,8.74,5.531,21.849,13.836
					c3.295,2.021,6.706,4.326,10.577,6.521c3.854,2.186,7.92,4.491,12.125,6.877c8.33,4.672,17.214,9.655,26.1,14.645l6.599,3.666
					c2.27,1.135,4.53,2.264,6.774,3.387c4.462,2.22,8.854,4.4,13.104,6.517c8.418,4.139,16.275,8.006,23.01,11.313
					c6.612,3.355,12.582,5.607,16.521,7.414C689.601,1231.855,691.886,1232.84,691.886,1232.84z"/>
			</g>
		</g>
		<g>
			<g>
				<path fill="#FBC68D" d="M592.638,1122.164c0,0-1.437-1.828-3.95-5.025c-2.491-3.215-6.223-7.686-10.157-13.444
					c-4.041-5.689-8.755-12.322-13.81-19.427c-5-7.145-10.634-14.559-15.479-22.504c-5.02-7.83-10.038-15.66-14.743-22.998
					c-2.354-3.668-4.631-7.215-6.789-10.58c-1.993-3.461-3.879-6.733-5.619-9.756c-6.95-12.094-11.587-20.153-11.587-20.153
					l-48.143,27.073c0,0,7.855,6.738,19.643,16.849c2.929,2.481,6.104,5.18,9.458,8.03c3.503,2.718,7.198,5.58,11.021,8.548
					c7.578,5.823,15.66,12.036,23.742,18.248c7.86,6.248,16.462,11.881,24.192,17.284c7.746,5.31,14.971,10.261,21.167,14.509
					c6.054,4.27,11.52,7.451,15.215,9.764C590.515,1120.861,592.638,1122.164,592.638,1122.164z"/>
			</g>
		</g>
		<g>
			<g>
				<path fill="#FBC68D" d="M510.504,998.275c0,0-1.159-2.019-3.187-5.543c-1.018-1.767-2.248-3.902-3.662-6.359
					c-1.396-2.467-2.773-5.354-4.386-8.445c-3.181-6.209-6.888-13.449-10.86-21.209c-3.963-7.764-8.359-15.965-12.007-24.522
					c-3.83-8.474-7.66-16.945-11.251-24.892c-1.789-3.973-3.521-7.815-5.159-11.457c-1.463-3.719-2.848-7.231-4.125-10.479
					c-5.115-12.978-8.526-21.623-8.526-21.623l-51.585,19.742c0,0,6.792,7.812,16.979,19.533c2.532,2.891,5.273,6.02,8.175,9.332
					c3.066,3.198,6.298,6.577,9.642,10.071c6.655,6.865,13.754,14.187,20.853,21.504c6.882,7.324,14.47,14.197,21.392,20.644
					c6.9,6.369,13.337,12.315,18.856,17.412c2.77,2.51,5.203,4.852,7.526,6.823c2.341,1.964,4.379,3.671,6.062,5.072
					C508.59,996.674,510.504,998.275,510.504,998.275z"/>
			</g>
		</g>
		<g>
			<g>
				<path fill="#FBC68D" d="M447.342,863.746c0,0-0.854-2.162-2.346-5.947c-0.747-1.893-1.655-4.186-2.695-6.822
					c-0.996-2.651-1.954-5.703-3.088-8.998c-2.234-6.604-4.841-14.312-7.634-22.571c-2.767-8.265-5.952-17.009-8.293-26.015
					c-2.539-8.942-5.078-17.887-7.459-26.271c-1.193-4.191-2.347-8.244-3.438-12.088c-0.904-3.894-1.763-7.566-2.553-10.965
					c-3.137-13.593-5.228-22.648-5.228-22.648l-53.923,11.961c0,0,5.56,8.728,13.896,21.82c2.083,3.229,4.341,6.727,6.729,10.426
					c2.566,3.617,5.275,7.432,8.076,11.375c5.57,7.771,11.512,16.053,17.451,24.338c5.723,8.256,12.262,16.152,18.146,23.547
					c5.892,7.312,11.388,14.14,16.101,19.988c2.364,2.889,4.445,5.557,6.434,7.859c2.029,2.276,3.802,4.264,5.259,5.897
					C445.682,861.885,447.342,863.746,447.342,863.746z"/>
			</g>
		</g>
		<g>
			<g>
				<path fill="#FBC68D" d="M404.607,721.42c0,0-0.521-2.268-1.439-6.229c-0.877-3.972-2.377-9.597-3.466-16.486
					c-1.224-6.865-2.654-14.875-4.185-23.457c-0.77-4.293-1.562-8.725-2.366-13.232c-0.405-2.25-0.812-4.521-1.22-6.801l-0.88-6.908
					c-1.171-9.227-2.342-18.451-3.438-27.1c-1.03-8.658-2.336-16.699-2.676-23.676c-1.054-13.912-1.758-23.189-1.758-23.189
					l-55.092,3.979c0,0,4.186,9.448,10.456,23.617c2.944,7.05,7.292,15.122,11.574,23.718c4.342,8.5,8.975,17.567,13.605,26.639
					l3.466,6.709c1.265,2.199,2.524,4.389,3.775,6.565c2.497,4.312,4.955,8.56,7.333,12.668c4.733,8.103,9.15,15.664,12.938,22.146
					c3.638,6.447,7.255,11.65,9.609,15.311C403.24,719.336,404.607,721.42,404.607,721.42z"/>
			</g>
		</g>
		<g>
			<g>
				<path fill="#FBC68D" d="M383.18,574.34c0,0-0.683-9.271-1.706-23.187c-0.354-13.952-0.823-32.555-1.296-51.155
					c0.473-18.601,0.941-37.202,1.296-51.153c1.022-13.916,1.706-23.189,1.706-23.189l-55.092-3.979c0,0,2.634,10.057,6.837,24.866
					c4.797,14.845,11.216,34.368,17.638,53.455c7.389,19.111,14.771,37.779,20.291,51.58
					C378.966,565.354,383.178,574.34,383.18,574.34z"/>
			</g>
		</g>
		<g>
			<g>
				<path fill="#FBC68D" d="M383.18,425.656c0,0,0.704-9.275,1.758-23.188c0.34-6.976,1.646-15.02,2.676-23.675
					c1.099-8.649,2.27-17.875,3.438-27.102l0.881-6.908c0.407-2.281,0.812-4.55,1.219-6.804c0.806-4.505,1.598-8.938,2.366-13.229
					c1.529-8.581,2.96-16.591,4.185-23.458c1.088-6.894,2.589-12.515,3.466-16.486c0.917-3.964,1.439-6.229,1.439-6.229
					l-53.923-11.96c0,0,0.292,2.572,0.808,7.069c0.554,4.498,1.104,10.854,2.494,18.563c1.268,7.625,2.746,16.517,4.331,26.046
					c0.804,4.708,1.634,9.57,2.479,14.512c0.423,2.454,0.853,4.927,1.282,7.41l1.647,7.486c2.225,9.882,4.447,19.766,6.532,29.029
					c2.166,9.187,3.854,17.64,6.089,24.918C380.445,416.055,383.18,425.656,383.18,425.656z"/>
			</g>
		</g>
		<g>
			<g>
				<path fill="#FBC68D" d="M404.607,278.579c0,0,2.091-9.06,5.228-22.649c0.79-3.395,1.647-7.074,2.553-10.964
					c1.095-3.844,2.246-7.896,3.438-12.087c2.381-8.385,4.92-17.329,7.459-26.274c2.341-9.004,5.525-17.748,8.293-26.013
					c2.793-8.257,5.397-15.965,7.634-22.569c1.135-3.296,2.092-6.348,3.088-9c1.04-2.634,1.948-4.931,2.695-6.823
					c1.492-3.784,2.346-5.945,2.346-5.945l-51.585-19.742c0,0-0.09,2.585-0.249,7.107c-0.075,2.252-0.167,4.986-0.271,8.122
					c-0.059,3.146,0.047,6.747,0.077,10.63c0.122,7.722,0.261,16.73,0.408,26.382c0.204,9.59,0.222,19.664,1.112,29.906
					c0.722,10.091,1.446,20.183,2.122,29.645c0.354,4.668,0.699,9.181,1.024,13.46c0.521,4.295,1.016,8.355,1.471,12.104
					C403.346,268.694,404.607,278.579,404.607,278.579z"/>
			</g>
		</g>
		<g>
			<g>
				<path fill="#FBC68D" d="M447.342,136.252c0,0,3.411-8.651,8.526-21.625c1.276-3.245,2.662-6.759,4.125-10.478
					c1.64-3.642,3.37-7.485,5.159-11.458c3.591-7.943,7.421-16.416,11.251-24.889c3.646-8.559,8.044-16.76,12.007-24.524
					c3.974-7.759,7.681-15.002,10.859-21.21c1.611-3.091,2.99-5.978,4.387-8.443c1.414-2.456,2.646-4.597,3.662-6.36
					c2.026-3.527,3.187-5.541,3.187-5.541l-48.143-27.076c0,0-0.464,2.544-1.281,6.996c-0.404,2.216-0.894,4.91-1.453,7.997
					c-0.538,3.091-0.945,6.678-1.491,10.519c-1.012,7.655-2.193,16.587-3.459,26.156c-1.218,9.509-2.643,19.493-3.271,29.749
					c-0.771,10.087-1.544,20.172-2.269,29.63c-0.328,4.672-0.646,9.188-0.944,13.472c-0.11,4.327-0.215,8.417-0.312,12.192
					C447.559,126.295,447.342,136.252,447.342,136.252z"/>
			</g>
		</g>
		<g>
			<g>
				<path fill="#FBC68D" d="M510.504,1.725c0,0,4.638-8.063,11.587-20.155c1.74-3.022,3.626-6.296,5.619-9.759
					c2.158-3.361,4.437-6.91,6.789-10.577c4.705-7.34,9.725-15.169,14.743-22.999c4.845-7.947,10.479-15.361,15.479-22.504
					c5.054-7.106,9.769-13.737,13.81-19.422c3.936-5.765,7.667-10.23,10.157-13.448c2.515-3.2,3.95-5.025,3.95-5.025l-43.692-33.788
					c0,0-0.828,2.45-2.277,6.739c-1.416,4.301-3.603,10.303-5.643,17.859c-2.11,7.432-4.57,16.101-7.206,25.39
					c-2.536,9.267-5.49,18.877-7.596,28.941c-2.229,9.869-4.456,19.74-6.545,28.996c-1.011,4.572-1.987,8.993-2.914,13.184
					c-0.743,4.264-1.447,8.292-2.098,12.013C512.171-8.098,510.504,1.725,510.504,1.725z"/>
			</g>
		</g>
		<g>
			<g>
				<path fill="#FBC68D" d="M592.638-122.166c0,0,5.747-7.313,14.365-18.284c2.189-2.716,4.41-5.779,7.033-8.796
					c2.616-3.019,5.378-6.204,8.232-9.499c5.71-6.59,11.799-13.621,17.889-20.652l4.558-5.267c1.603-1.677,3.193-3.346,4.774-5.001
					c3.159-3.312,6.269-6.572,9.278-9.727c6.016-6.313,11.631-12.203,16.44-17.253c4.731-5.133,9.173-8.91,12.048-11.788
					c2.946-2.808,4.628-4.411,4.628-4.411l-38.342-39.76c0,0-1.169,2.309-3.218,6.352c-1.97,4.104-5.104,9.624-8.219,16.802
					c-3.153,7.058-6.832,15.291-10.771,24.112c-1.928,4.368-3.922,8.884-5.948,13.471c-1,2.281-2.009,4.58-3.021,6.888l-2.771,7.146
					c-3.624,9.456-7.247,18.911-10.644,27.774c-1.658,4.383-3.26,8.622-4.78,12.641c-1.512,4.001-2.671,7.982-3.874,11.534
					C595.702-131.652,592.638-122.166,592.638-122.166z"/>
			</g>
		</g>
		<g>
			<g>
				<path fill="#FBC68D" d="M691.886-232.843c0,0,6.731-6.419,16.827-16.049c4.932-4.944,11.234-10.104,17.792-15.849
					c6.591-5.711,13.62-11.801,20.649-17.892c14.337-11.842,29.177-23.076,40.074-31.783c5.539-4.237,10.384-7.461,13.669-9.863
					c3.312-2.354,5.211-3.703,5.211-3.703l-32.176-44.895c0,0-1.49,2.119-4.098,5.828c-2.565,3.746-6.372,8.883-10.61,15.38
					c-8.305,13.233-19.453,30.357-29.749,47.817c-4.939,8.848-9.882,17.693-14.513,25.986c-4.535,8.274-8.883,15.739-12.1,22.627
					C696.278-241.802,691.886-232.843,691.886-232.843z"/>
			</g>
		</g>
		<g>
			<g>
				<path fill="#FBC68D" d="M806.109-327.982c0,0,7.576-5.392,18.942-13.478c2.807-2.079,5.957-4.16,9.35-6.278
					c3.363-2.155,6.911-4.428,10.583-6.78c7.338-4.707,15.167-9.728,22.994-14.749c15.979-9.507,32.211-18.599,44.266-25.615
					c12.404-6.38,20.672-10.631,20.672-10.631l-25.295-49.103c0,0-7.062,7.521-17.663,18.803
					c-10.147,11.874-23.591,27.331-36.386,42.987c-6.163,8.051-12.325,16.103-18.103,23.649c-2.836,3.738-5.575,7.354-8.177,10.782
					c-2.607,3.379-5.007,6.645-7.105,9.809C811.74-336.227,806.109-327.982,806.109-327.982z"/>
			</g>
		</g>
		<g>
			<g>
				<path fill="#FBC68D" d="M932.917-405.514c0,0,8.275-4.243,20.688-10.604c12.548-6.078,29.612-13.488,46.518-21.235
					c17.221-7.008,34.58-13.686,47.533-18.856c13.204-4.485,22.008-7.477,22.008-7.477l-17.83-52.276c0,0-8.093,6.401-20.23,16.002
					c-11.782,10.254-27.318,23.638-42.29,37.194c-14.681,14.306-29.102,28.106-39.481,38.888
					C939.681-412.859,932.917-405.514,932.917-405.514z"/>
			</g>
		</g>
		<g>
			<g>
				<path fill="#FBC68D" d="M1069.663-463.687c0,0,8.806-2.981,22.016-7.455c13.293-4.203,31.273-8.984,49.132-14.166
					c18.041-4.49,36.219-8.442,49.787-11.658c6.812-1.488,12.572-2.314,16.565-3.087c4.003-0.714,6.292-1.122,6.292-1.122
					l-9.971-54.326c0,0-2.252,1.279-6.191,3.517c-3.921,2.298-9.559,5.297-16.158,9.386c-13.157,8.418-30.517,19.27-47.293,30.565
					c-16.617,11.994-32.92,23.485-44.759,32.66C1077.43-469.959,1069.663-463.687,1069.663-463.687z"/>
			</g>
		</g>
		<g>
			<g>
				<path fill="#FBC68D" d="M1213.456-501.174c0,0,9.153-1.638,22.884-4.091c6.837-1.41,14.943-2.208,23.587-3.354
					c8.647-1.101,17.874-2.273,27.101-3.448l6.91-0.881c2.309-0.18,4.607-0.36,6.89-0.539c4.565-0.345,9.057-0.684,13.406-1.014
					c8.692-0.663,16.81-1.281,23.765-1.811c6.948-0.655,12.764-0.757,16.836-0.833c4.067-0.1,6.396-0.159,6.396-0.159l-1.985-55.197
					c0,0-2.412,0.924-6.635,2.544c-4.215,1.593-10.22,3.863-17.332,7.121c-7.062,3.132-15.298,6.788-24.125,10.703
					c-4.355,1.953-8.855,3.974-13.427,6.025c-2.269,1.032-4.556,2.069-6.853,3.113l-6.835,3.474
					c-9.01,4.625-18.02,9.249-26.468,13.586c-8.354,4.372-16.106,8.173-22.592,12.148
					C1222.064-506.22,1213.456-501.174,1213.456-501.174z"/>
			</g>
		</g>
		<g>
			<g>
				<path fill="#FBC68D" d="M1361.229-517.304c0,0,9.3-0.235,23.25-0.589c13.95-0.771,32.553,0.262,51.152,0.589
					c4.652,0.116,9.3,0.229,13.878,0.346c4.574,0.211,9.062,0.654,13.408,0.956c8.695,0.662,16.812,1.279,23.769,1.809
					c6.954,0.547,12.756,0.916,16.805,1.318c4.036,0.514,6.343,0.808,6.343,0.808l5.976-54.908c0,0-2.52,0.551-6.93,1.514
					c-4.407,1.081-10.716,2.832-18.204,4.837c-7.434,2.03-16.104,4.401-25.397,6.938c-4.608,1.305-9.349,2.521-14.148,3.999
					c-4.782,1.58-9.643,3.182-14.502,4.784c-19.357,6.555-38.271,12.433-52.261,18.381
					C1370.48-520.992,1361.229-517.304,1361.229-517.304z"/>
			</g>
		</g>
		<g>
			<g>
				<path fill="#FBC68D" d="M1509.832-512.067c0,0,9.229,1.175,23.064,2.937c6.907,0.947,15.017,1.745,23.618,3.148
					c8.579,1.534,17.732,3.171,26.887,4.809c4.577,0.816,9.154,1.632,13.661,2.434c2.252,0.402,4.487,0.801,6.691,1.196
					c2.188,0.506,4.348,1.004,6.47,1.497c8.49,1.961,16.419,3.793,23.214,5.362c6.799,1.565,12.459,2.871,16.425,3.783
					c1.983,0.447,3.538,0.81,4.582,1.138c1.047,0.298,1.604,0.457,1.604,0.457l13.938-53.447c0,0-0.645,0.043-1.853,0.121
					c-1.2,0.049-2.989,0.239-5.261,0.498c-4.52,0.506-10.971,1.228-18.72,2.097c-7.642,0.893-16.562,1.934-26.117,3.052
					c-2.365,0.284-4.765,0.572-7.201,0.867c-2.442,0.406-4.923,0.82-7.418,1.234c-4.958,0.842-9.994,1.694-15.03,2.548
					c-9.934,1.731-19.866,3.464-29.181,5.087c-9.25,1.773-17.877,3.952-25.18,5.562
					C1519.51-514.315,1509.832-512.067,1509.832-512.067z"/>
			</g>
		</g>
		<g>
			<g>
				<path fill="#FBC68D" d="M1656.047-485.308c0,0,8.944,2.542,22.359,6.354c6.708,1.904,14.533,4.127,22.921,6.506
					c8.257,2.797,17.062,5.78,25.868,8.761c8.77,3.082,17.699,5.729,25.792,8.971c8.106,3.199,15.675,6.185,22.164,8.744
					c6.485,2.556,11.893,4.686,15.677,6.176c3.807,1.444,5.905,2.441,5.909,2.441l21.62-50.825c0,0.001-2.559-0.255-7.144-0.387
					c-4.538-0.169-11.025-0.408-18.81-0.696c-7.688-0.249-16.66-0.538-26.271-0.849c-9.523-0.321-19.901,0.182-30.026,0.284
					c-10.073,0.235-20.147,0.471-29.589,0.691c-9.418,0.688-18.209,1.332-25.743,1.882
					C1665.941-486.083,1656.047-485.308,1656.047-485.308z"/>
			</g>
		</g>
		<g>
			<g>
				<path fill="#FBC68D" d="M1796.738-437.354c0,0,8.468,3.833,21.178,9.582c6.354,2.871,13.77,6.221,21.712,9.808
					c7.763,3.975,16.039,8.211,24.315,12.45c4.139,2.118,8.276,4.236,12.349,6.321c4.08,2.081,8.112,4.083,11.849,6.34
					c7.559,4.346,14.609,8.404,20.654,11.882c6.051,3.473,11.086,6.37,14.616,8.396c3.559,1.975,5.468,3.307,5.468,3.307
					l28.816-47.119c0,0-2.469-0.665-6.991-1.456c-4.468-0.83-10.851-2.012-18.511-3.432c-7.57-1.367-16.4-2.959-25.865-4.668
					c-4.656-0.916-9.626-1.522-14.632-2.173c-4.981-0.644-10.046-1.298-15.106-1.951c-10.002-1.239-20-2.479-29.38-3.643
					c-9.414-0.704-18.2-1.36-25.734-1.924C1806.631-436.666,1796.738-437.354,1796.738-437.354z"/>
			</g>
		</g>
		<g>
			<g>
				<path fill="#FBC68D" d="M1928.879-369.269c0,0,7.83,5.022,19.57,12.555c5.863,3.773,12.71,8.175,20.04,12.892
					c7.104,5.057,14.683,10.447,22.263,15.839c3.788,2.693,7.577,5.388,11.309,8.04c1.867,1.324,3.721,2.64,5.547,3.938
					c1.767,1.387,3.508,2.756,5.221,4.103c6.857,5.391,13.256,10.419,18.738,14.729c5.482,4.31,10.06,7.898,13.261,10.411
					c1.623,1.226,2.778,2.336,3.616,3.033c0.823,0.714,1.263,1.096,1.263,1.096l35.354-42.438c0,0-0.601-0.235-1.729-0.677
					c-1.138-0.422-2.737-1.129-4.929-1.838c-4.303-1.463-10.448-3.554-17.826-6.062c-7.301-2.441-15.815-5.292-24.94-8.345
					c-2.265-0.747-4.562-1.508-6.892-2.277c-2.387-0.675-4.798-1.357-7.232-2.047c-4.837-1.358-9.757-2.734-14.672-4.113
					c-9.721-2.678-19.439-5.355-28.553-7.863c-9.229-2.183-17.855-4.045-25.168-5.681
					C1938.576-367.149,1928.879-369.269,1928.879-369.269z"/>
			</g>
		</g>
		<g>
			<g>
				<path fill="#FBC68D" d="M2049.704-282.633c0,0,7.029,6.091,17.573,15.229c5.229,4.612,11.524,9.787,17.923,15.704
					c6.312,6.018,13.042,12.438,19.772,18.857c13.746,12.553,26.228,26.37,35.929,36.396c4.805,5.055,8.812,9.269,11.618,12.215
					c2.659,3.077,4.182,4.834,4.182,4.834l41.125-36.871c0,0-2.244-1.272-6.17-3.496c-4.049-2.07-9.834-5.025-16.773-8.571
					c-13.912-6.957-31.848-16.466-50.738-24.388c-9.244-4.044-18.486-8.086-27.151-11.877c-8.691-3.628-17.066-6.608-24.042-9.308
					C2059.004-279.145,2049.704-282.633,2049.704-282.633z"/>
			</g>
		</g>
		<g>
			<g>
				<path fill="#FBC68D" d="M2156.701-179.396c0,0,6.088,7.031,15.225,17.578c2.283,2.635,4.758,5.492,7.375,8.512
					c2.628,3.013,5.417,6.174,8.042,9.657c5.39,6.857,11.132,14.169,16.878,21.485c2.876,3.653,5.751,7.31,8.579,10.909
					c2.854,3.58,5.314,7.363,7.89,10.881c5.052,7.106,9.768,13.738,13.808,19.424c3.997,5.713,7.521,10.348,9.674,13.801
					c2.192,3.427,3.447,5.386,3.447,5.386l46.036-30.519c0,0-2.04-1.581-5.61-4.348c-3.521-2.789-8.992-6.453-15.297-10.95
					c-6.314-4.415-13.688-9.565-21.583-15.084c-3.976-2.695-7.868-5.608-12.172-8.282c-4.261-2.675-8.591-5.394-12.922-8.113
					c-8.577-5.326-17.151-10.651-25.19-15.646c-3.93-2.516-7.959-4.728-11.755-6.827c-3.778-2.092-7.35-4.071-10.643-5.899
					C2165.414-174.611,2156.701-179.396,2156.701-179.396z"/>
			</g>
		</g>
		<g>
			<g>
				<path fill="#FBC68D" d="M2247.616-61.766c0,0,5.019,7.83,12.545,19.574c3.663,5.931,8.405,12.57,12.579,20.232
					c4.343,7.56,8.979,15.62,13.611,23.683c2.321,4.031,4.642,8.06,6.925,12.027c2.173,4.025,4.161,8.071,6.167,11.94
					c3.973,7.759,7.683,15,10.859,21.208c3.131,6.231,5.968,11.315,7.523,15.079c1.671,3.707,2.627,5.825,2.627,5.825l49.999-23.477
					c0,0-1.793-1.861-4.923-5.119c-3.014-3.305-7.92-7.714-13.512-13.079c-5.611-5.284-12.162-11.45-19.182-18.055
					c-3.516-3.256-7.05-6.651-10.787-9.995c-3.836-3.262-7.729-6.576-11.626-9.891c-7.726-6.51-15.448-13.017-22.688-19.119
					c-7.029-6.129-14.388-11.262-20.275-15.863C2255.556-55.776,2247.616-61.766,2247.616-61.766z"/>
			</g>
		</g>
		<g>
			<g>
				<path fill="#FBC68D" d="M2320.455,67.803c0,0,3.833,8.473,9.575,21.182c6.097,12.562,12.627,29.983,19.483,47.268
					c1.71,4.323,3.416,8.647,5.096,12.904c1.479,4.331,2.935,8.593,4.338,12.717c2.793,8.257,5.402,15.963,7.639,22.569
					c2.165,6.627,4.266,12.059,5.244,16.012c1.109,3.913,1.741,6.149,1.741,6.149l52.9-15.892c0,0-1.5-2.104-4.115-5.786
					c-2.486-3.715-6.733-8.785-11.462-14.916c-4.777-6.05-10.355-13.109-16.329-20.672c-2.981-3.721-6.063-7.565-9.194-11.469
					c-3.318-3.79-6.691-7.638-10.062-11.486c-13.494-15.302-26.511-30.316-37.388-40.883
					C2327.441,74.881,2320.455,67.803,2320.455,67.803z"/>
			</g>
		</g>
		<g>
			<g>
				<path fill="#FBC68D" d="M2373.572,206.604c0,0,2.542,8.945,6.346,22.361c0.958,3.354,1.99,6.987,3.08,10.831
					c0.546,1.922,1.104,3.896,1.676,5.914c0.473,2.046,0.948,4.132,1.438,6.256c1.958,8.495,4.049,17.554,6.139,26.613
					c1.048,4.531,2.096,9.059,3.127,13.517c1.074,4.451,1.667,8.926,2.491,13.204c1.533,8.583,2.961,16.593,4.188,23.458
					c1.216,6.867,2.235,12.588,2.945,16.593c0.511,4.037,0.799,6.343,0.799,6.343l54.659-7.975c0,0-1.166-2.3-3.2-6.327
					c-2.235-3.964-5.426-9.624-9.259-16.416c-3.825-6.688-8.284-14.493-13.064-22.854c-2.443-4.13-4.707-8.43-7.479-12.679
					c-2.723-4.237-5.482-8.54-8.248-12.843c-5.497-8.467-10.996-16.936-16.146-24.877c-1.282-1.958-2.541-3.883-3.776-5.771
					c-1.33-1.849-2.634-3.659-3.903-5.421c-2.534-3.497-4.931-6.804-7.145-9.857
					C2379.439,214.631,2373.572,206.604,2373.572,206.604z"/>
			</g>
		</g>
		<g>
			<g>
				<path fill="#FBC68D" d="M2405.804,351.691c0,0,1.173,9.226,2.929,23.065c0.822,6.926,2.043,14.977,2.882,23.654
					c0.659,8.693,1.362,17.969,2.067,27.245c0.354,4.639,0.705,9.274,1.056,13.839c0.368,4.562,0.733,9.055,0.749,13.419
					c0.22,8.722,0.424,17.608,0.6,24.583c0.357,13.953,0.598,24.003,0.598,24.003h55.229c0,0-3.693-10.472-9.236-25.047
					c-2.771-7.175-6.007-15.917-9.471-24.88c-1.639-4.45-3.688-9.198-5.758-13.808c-2.052-4.589-4.14-9.343-6.222-14.006
					c-4.162-9.185-8.319-18.415-12.221-27.023c-4.078-8.507-8.312-16.338-11.709-23.007
					C2410.4,360.521,2405.804,351.691,2405.804,351.691z"/>
			</g>
		</g>
	</g>
	<g>
		<path fill="#FBC68D" d="M875.846-77.907c-3.736,0.237-7.902-1.492-10.611-4.855c-4.519-5.607-3.53-13.565,2.076-18.082
			c2.804-2.258,5.558-2.858,7.748-3.005c11.834-0.516,22.674-3.701,32.204-11.378c8.83-7.111,11.335-14.907,6.706-20.654
			l-0.225-0.28c-4.403-5.467-10.026-5.561-29.812,3.444c-23.83,10.871-40.986,15.678-56.683-3.805l-0.226-0.281
			c-14.338-17.801-9.524-41.092,10.521-57.237c11.915-9.595,24.772-14.867,38.118-16.371c3.513-0.518,8.268,0.507,11.654,4.711
			c4.515,5.608,3.528,13.565-2.077,18.082c-2.104,1.693-4.237,2.488-6.709,2.862c-10.535,1.551-19.184,4.588-25.911,10.007
			c-8.271,6.66-9.567,13.947-5.729,18.711l0.228,0.28c5.191,6.448,11.093,5.164,31.553-4.15
			c24.081-10.846,41.052-12.729,54.827,4.372l0.226,0.28c15.692,19.484,9.642,42.384-11.523,59.432
			C909.3-85.438,893.104-78.864,875.846-77.907z"/>
		<path fill="#FBC68D" d="M1033.688-284.585l-24.319,10.85c-6.408,2.858-14.013-0.054-16.871-6.463
			c-2.86-6.408,0.053-14.012,6.462-16.872l73.943-32.987c6.41-2.857,14.014,0.055,16.871,6.463
			c2.859,6.409-0.055,14.013-6.461,16.87l-24.319,10.85l35.7,80.024c3.15,7.066,0.057,15.146-7.011,18.297
			c-7.064,3.152-15.146,0.057-18.298-7.008L1033.688-284.585z"/>
		<path fill="#FBC68D" d="M1226.288-302.259l-8.449-58.598c-1.104-7.659,4.08-14.588,11.738-15.692
			c7.659-1.104,14.586,4.08,15.689,11.738l8.349,57.886c2.928,20.303,14.594,29.349,31.338,26.935
			c16.742-2.415,25.431-14.029,22.581-33.802l-8.476-58.776c-1.104-7.659,4.076-14.586,11.735-15.689
			c7.659-1.104,14.588,4.077,15.692,11.736l8.319,57.708c5.444,37.759-13.079,59.34-46.562,64.168
			C1254.758-249.819,1231.58-265.567,1226.288-302.259z"/>
		<path fill="#FBC68D" d="M1470.743-375.458c1.114-7.66,8.05-12.837,15.706-11.726l34.911,5.07
			c39.184,5.69,62.353,36.52,57.255,71.605l-0.051,0.354c-5.097,35.088-36.129,58.408-75.312,52.718l-34.912-5.069
			c-7.655-1.112-12.834-8.048-11.722-15.706L1470.743-375.458z M1506.851-282.191c22.441,3.26,39.778-9.683,42.984-31.767
			l0.055-0.357c3.206-22.086-9.686-39.779-32.127-43.039l-21.192-3.077l-10.916,75.163L1506.851-282.191z"/>
		<path fill="#FBC68D" d="M1717.567-318c2.926-7.165,10.903-10.513,18.066-7.585c7.166,2.928,10.513,10.907,7.586,18.069
			l-37.998,92.959c-2.928,7.162-10.904,10.511-18.067,7.583c-7.166-2.928-10.514-10.907-7.586-18.07L1717.567-318z"/>
		<path fill="#FBC68D" d="M1837.258-204.451l0.213-0.288c21.348-28.749,61.51-35.457,92.715-12.288
			c31.201,23.167,36.322,63.051,14.979,91.799l-0.217,0.289c-21.343,28.749-61.507,35.456-92.711,12.288
			C1821.034-135.818,1815.911-175.703,1837.258-204.451z M1921.477-141.918l0.217-0.288c12.869-17.336,10.886-41.221-7.028-54.522
			c-17.915-13.3-40.851-8.367-53.721,8.969l-0.212,0.288c-12.875,17.337-10.885,41.222,7.024,54.521
			C1885.672-119.649,1908.607-124.583,1921.477-141.918z"/>
	</g>
	<g>
		<path fill="#FBC68D" d="M855.021,1068.062c4.945-5.949,13.562-6.742,19.516-1.798l27.125,22.55
			c30.447,25.307,34.111,63.692,11.448,90.957l-0.23,0.276c-22.665,27.265-61.301,30.949-91.748,5.644l-27.125-22.55
			c-5.953-4.944-6.745-13.563-1.799-19.516L855.021,1068.062z M837.122,1166.455c17.438,14.492,38.981,12.508,53.246-4.654
			l0.229-0.271c14.268-17.162,12.512-38.98-4.928-53.479l-16.469-13.688l-48.548,58.401L837.122,1166.455z"/>
		<path fill="#FBC68D" d="M1011.236,1241.576l0.139-0.334c14.003-32.953,51.473-48.902,87.243-33.701
			c35.771,15.195,50.114,52.766,36.112,85.721l-0.144,0.332c-14.002,32.955-51.473,48.904-87.244,33.703
			C1011.575,1312.102,997.234,1274.531,1011.236,1241.576z M1107.785,1282.596l0.141-0.33c8.442-19.877,0.906-42.627-19.63-51.352
			c-20.535-8.723-41.672,1.451-50.116,21.328l-0.141,0.328c-8.443,19.873-0.906,42.629,19.629,51.352
			C1078.203,1312.646,1099.342,1302.469,1107.785,1282.596z"/>
		<path fill="#FBC68D" d="M1258.005,1272.98c0.828-7.691,7.564-13.119,15.257-12.296l2.864,0.31
			c6.619,0.713,10.208,4.356,13.446,9.59l45.63,75.49l6.947-64.586c0.808-7.511,7.545-12.939,15.059-12.134
			c7.517,0.81,12.943,7.543,12.134,15.062l-10.718,99.649c-0.828,7.695-7.563,13.121-15.259,12.293l-0.896-0.096
			c-6.619-0.713-10.208-4.354-13.445-9.59l-47.329-78.205l-7.218,67.088c-0.809,7.519-7.545,12.945-15.06,12.14
			c-7.515-0.812-12.941-7.549-12.134-15.064L1258.005,1272.98z"/>
		<path fill="#FBC68D" d="M1482.076,1281.756c-1.354-7.621,3.601-14.713,11.223-16.066l34.729-6.161
			c38.982-6.916,70.666,15.059,76.858,49.967l0.062,0.354c6.192,34.906-15.931,66.798-54.912,73.714l-34.729,6.161
			c-7.62,1.355-14.714-3.6-16.065-11.223L1482.076,1281.756z M1545.665,1358.934c22.328-3.963,34.716-21.694,30.816-43.67
			l-0.062-0.354c-3.897-21.971-21.694-34.715-44.021-30.754l-21.088,3.741l13.271,74.771L1545.665,1358.934z"/>
		<path fill="#FBC68D" d="M1740.776,1314.852l-42.7-88.479c-3.363-6.971-0.511-15.139,6.456-18.504l62.876-30.342
			c6.159-2.976,13.607-0.371,16.58,5.78c2.97,6.158,0.295,13.447-5.864,16.416l-50.562,24.402l11.104,23.01l43.271-20.879
			c6.158-2.975,13.604-0.373,16.577,5.785c2.974,6.158,0.293,13.443-5.863,16.416l-43.269,20.881l11.497,23.822l51.37-24.791
			c6.159-2.976,13.604-0.373,16.577,5.785c2.975,6.157,0.294,13.44-5.862,16.416l-63.688,30.733
			C1752.311,1324.67,1744.14,1321.822,1740.776,1314.852z"/>
		<path fill="#FBC68D" d="M1874.547,1125.164c-5.07-5.84-4.465-14.475,1.378-19.547l33.021-28.67
			c12.093-10.502,24.418-15.244,36.096-14.42c9.899,0.692,19.245,5.69,27.031,14.659l0.235,0.273
			c12.979,14.944,13.527,30.674,6.106,45.459l29.878,5.041c4.279,0.812,7.527,1.805,10.359,5.065
			c5.07,5.843,3.481,13.896-1.543,18.263c-4.758,4.131-9.89,4.532-15.047,3.528l-42.801-8.118l-16.713,14.514l18.053,20.789
			c5.071,5.842,4.463,14.477-1.377,19.547c-5.847,5.076-14.478,4.467-19.552-1.377L1874.547,1125.164z M1947.699,1124.33
			c10.191-8.853,11.316-19.359,4.354-27.377l-0.234-0.271c-7.786-8.971-18.049-8.164-28.238,0.688l-20.791,18.051l23.712,27.314
			L1947.699,1124.33z"/>
	</g>
	<g>
		<path fill="#FBC68D" d="M527.225,518.797c10.752-51.755,26.226-101.404,45.823-148.356c-2.228,37.492-1.823,74.79,1.11,111.617
			c11.375-1.016,22.751-1.978,34.131-2.888c-13.149,46.26-22.125,94.786-26.343,144.961c-9.401-35.936-16.355-72.676-20.759-109.951
			C549.864,515.666,538.541,517.203,527.225,518.797z"/>
	</g>
	<g>
		<path fill="#FBC68D" d="M2269.293,518.584c-10.89-51.207-25.982-100.516-44.8-147.443c1.604,37.276,0.862,74.345-2.151,110.995
			c-11.37-1.036-22.745-2.021-34.125-2.958c13.038,46.269,22.314,94.563,27.359,144.397c8.807-35.877,15.416-72.443,19.738-109.496
			C2246.648,515.533,2257.972,517.035,2269.293,518.584z"/>
	</g>
</g>
</svg>
