<?xml version="1.0" encoding="utf-8"?>
<!-- Generator: Adobe Illustrator 16.0.5, SVG Export Plug-In . SVG Version: 6.00 Build 0)  -->
<!DOCTYPE svg PUBLIC "-//W3C//DTD SVG 1.1//EN" "http://www.w3.org/Graphics/SVG/1.1/DTD/svg11.dtd">
<svg version="1.1" id="Layer_1" xmlns="http://www.w3.org/2000/svg" xmlns:xlink="http://www.w3.org/1999/xlink" x="0px" y="0px"
	 width="1024px" height="1024px" viewBox="0 0 1024 1024" enable-background="new 0 0 1024 1024" xml:space="preserve">
<g>
	<path stroke="#000000" stroke-miterlimit="10" d="M275.182,799.156h49.062c17.192,0,30.66-18.332,30.66-41.734V581.743
		c0-29.444,7.203-52.813,21.436-69.639c-14.233-16.823-21.436-40.19-21.436-69.637v-175.68c0-23.796-13.181-41.741-30.66-41.741
		H102.5C45.478,306.269,12,405.223,12,512c0,181.256,96.448,339.984,240.822,427.667v-118.15
		C252.822,809.188,262.853,799.156,275.182,799.156z"/>
	<path stroke="#000000" stroke-miterlimit="10" d="M1012,512c0-276.142-223.858-500-500-500
		c-148.882,0-282.566,65.072-374.163,168.327h186.406c42.27,0,75.38,37.978,75.38,86.461v175.68
		c0,16.928,2.303,40.441,22.213,49.152c8.139,3.562,13.397,11.603,13.397,20.484c0,8.89-5.262,16.932-13.405,20.486
		c-19.902,8.711-22.205,32.226-22.205,49.155v175.679c0,48.479-33.111,86.453-75.38,86.453h-26.704V963.79
		c47.396,22.539,98.899,37.838,153.082,44.471V821.517c0-12.329,10.03-22.36,22.359-22.36h49.063
		c17.194,0,30.663-18.332,30.663-41.734V581.743c0-29.445,7.2-52.812,21.432-69.639c-14.229-16.823-21.432-40.191-21.432-69.637
		v-175.68c0-23.796-13.183-41.741-30.663-41.741H472.98c-12.329,0-22.359-10.03-22.359-22.358c0-12.33,10.03-22.361,22.359-22.361
		h49.063c42.27,0,75.38,37.978,75.38,86.461v175.68c0,16.927,2.303,40.438,22.213,49.152c8.137,3.56,13.396,11.601,13.396,20.484
		c0,8.892-5.263,16.933-13.406,20.487c-19.899,8.71-22.202,32.225-22.202,49.154v175.679c0,48.479-33.11,86.453-75.38,86.453H495.34
		v167.841c5.532,0.181,11.084,0.282,16.66,0.282c47.297,0,93.06-6.569,136.427-18.842V821.515c0-12.329,10.031-22.359,22.361-22.359
		h49.062c17.193,0,30.661-18.332,30.661-41.735V581.741c0-29.03,7.366-52.861,21.412-69.639
		c-14.046-16.779-21.412-40.608-21.412-69.636V266.786c0-23.796-13.182-41.741-30.661-41.741h-49.062
		c-12.33,0-22.361-10.03-22.361-22.358c0-12.33,10.031-22.361,22.361-22.361h49.062c42.27,0,75.38,37.978,75.38,86.461v175.681
		c0,16.928,2.303,40.44,22.215,49.151c8.139,3.56,13.397,11.601,13.397,20.484c0,8.884-5.259,16.926-13.397,20.487
		c-19.912,8.707-22.215,32.224-22.215,49.154v175.679c0,48.479-33.11,86.454-75.38,86.454h-26.704v134.291
		C879.741,905.606,1012,724.251,1012,512z"/>
</g>
</svg>
